<svg width="18" height="13" viewBox="0 0 18 13" fill="none" xmlns="http://www.w3.org/2000/svg">
<path fill-rule="evenodd" clip-rule="evenodd" d="M16.241 5.08396C16.2419 5.08488 16.2434 5.08488 16.2443 5.08396C16.2452 5.08304 16.2467 5.08304 16.2476 5.08396L17.6585 6.49484C17.6594 6.49576 17.6594 6.49725 17.6585 6.49817C17.6576 6.49909 17.6576 6.50058 17.6585 6.5015L17.6596 6.50255C17.6611 6.50405 17.6611 6.50647 17.6596 6.50797L16.2508 7.91676C16.2493 7.91826 16.2468 7.91826 16.2453 7.91676C16.2439 7.91527 16.2414 7.91527 16.2399 7.91676L12.364 11.7927C11.9734 12.1833 11.3403 12.1833 10.9497 11.7927C10.5592 11.4022 10.5592 10.769 10.9497 10.3785L13.8284 7.49987H1C0.447715 7.49987 0 7.05216 0 6.49987C0 5.94759 0.447715 5.49987 1 5.49987H13.8285L10.9498 2.62117C10.5592 2.23065 10.5592 1.59748 10.9498 1.20696C11.3403 0.816431 11.9734 0.816431 12.364 1.20696L16.241 5.08396Z" fill="white"/>
</svg>
