<svg width="16" height="16" viewBox="0 0 16 16" fill="none" xmlns="http://www.w3.org/2000/svg">
<path d="M14.125 1.25H13.375V0.5C13.375 0.223858 13.1511 0 12.875 0H12.625C12.3489 0 12.125 0.223858 12.125 0.5V1.25H3.875V0.5C3.875 0.223858 3.65114 0 3.375 0H3.125C2.84886 0 2.625 0.223858 2.625 0.5V1.25H1.875C0.841125 1.25 0 2.09113 0 3.125V14.125C0 15.1589 0.841125 16 1.875 16H14.125C15.1589 16 16 15.1589 16 14.125V3.125C16 2.09113 15.1589 1.25 14.125 1.25ZM14.75 14.125C14.75 14.4696 14.4696 14.75 14.125 14.75H1.875C1.53038 14.75 1.25 14.4696 1.25 14.125V6.375C1.25 6.09886 1.47386 5.875 1.75 5.875H14.25C14.5261 5.875 14.75 6.09886 14.75 6.375V14.125ZM14.75 4.125C14.75 4.40114 14.5261 4.625 14.25 4.625H1.75C1.47386 4.625 1.25 4.40114 1.25 4.125V3.125C1.25 2.78038 1.53038 2.5 1.875 2.5H2.625V3.25C2.625 3.52614 2.84886 3.75 3.125 3.75H3.375C3.65114 3.75 3.875 3.52614 3.875 3.25V2.5H12.125V3.25C12.125 3.52614 12.3489 3.75 12.625 3.75H12.875C13.1511 3.75 13.375 3.52614 13.375 3.25V2.5H14.125C14.4696 2.5 14.75 2.78038 14.75 3.125V4.125Z" fill="#6746EC"/>
<path d="M3.125 7.1875H2.875C2.59886 7.1875 2.375 7.41136 2.375 7.6875V7.9375C2.375 8.21364 2.59886 8.4375 2.875 8.4375H3.125C3.40114 8.4375 3.625 8.21364 3.625 7.9375V7.6875C3.625 7.41136 3.40114 7.1875 3.125 7.1875Z" fill="#6746EC"/>
<path d="M5.625 7.1875H5.375C5.09886 7.1875 4.875 7.41136 4.875 7.6875V7.9375C4.875 8.21364 5.09886 8.4375 5.375 8.4375H5.625C5.90114 8.4375 6.125 8.21364 6.125 7.9375V7.6875C6.125 7.41136 5.90114 7.1875 5.625 7.1875Z" fill="#6746EC"/>
<path d="M8.125 7.1875H7.875C7.59886 7.1875 7.375 7.41136 7.375 7.6875V7.9375C7.375 8.21364 7.59886 8.4375 7.875 8.4375H8.125C8.40114 8.4375 8.625 8.21364 8.625 7.9375V7.6875C8.625 7.41136 8.40114 7.1875 8.125 7.1875Z" fill="#6746EC"/>
<path d="M10.625 7.1875H10.375C10.0989 7.1875 9.875 7.41136 9.875 7.6875V7.9375C9.875 8.21364 10.0989 8.4375 10.375 8.4375H10.625C10.9011 8.4375 11.125 8.21364 11.125 7.9375V7.6875C11.125 7.41136 10.9011 7.1875 10.625 7.1875Z" fill="#6746EC"/>
<path d="M13.125 7.1875H12.875C12.5989 7.1875 12.375 7.41136 12.375 7.6875V7.9375C12.375 8.21364 12.5989 8.4375 12.875 8.4375H13.125C13.4011 8.4375 13.625 8.21364 13.625 7.9375V7.6875C13.625 7.41136 13.4011 7.1875 13.125 7.1875Z" fill="#6746EC"/>
<path d="M3.125 9.6875H2.875C2.59886 9.6875 2.375 9.91136 2.375 10.1875V10.4375C2.375 10.7136 2.59886 10.9375 2.875 10.9375H3.125C3.40114 10.9375 3.625 10.7136 3.625 10.4375V10.1875C3.625 9.91136 3.40114 9.6875 3.125 9.6875Z" fill="#6746EC"/>
<path d="M5.625 9.6875H5.375C5.09886 9.6875 4.875 9.91136 4.875 10.1875V10.4375C4.875 10.7136 5.09886 10.9375 5.375 10.9375H5.625C5.90114 10.9375 6.125 10.7136 6.125 10.4375V10.1875C6.125 9.91136 5.90114 9.6875 5.625 9.6875Z" fill="#6746EC"/>
<path d="M8.125 9.6875H7.875C7.59886 9.6875 7.375 9.91136 7.375 10.1875V10.4375C7.375 10.7136 7.59886 10.9375 7.875 10.9375H8.125C8.40114 10.9375 8.625 10.7136 8.625 10.4375V10.1875C8.625 9.91136 8.40114 9.6875 8.125 9.6875Z" fill="#6746EC"/>
<path d="M10.625 9.6875H10.375C10.0989 9.6875 9.875 9.91136 9.875 10.1875V10.4375C9.875 10.7136 10.0989 10.9375 10.375 10.9375H10.625C10.9011 10.9375 11.125 10.7136 11.125 10.4375V10.1875C11.125 9.91136 10.9011 9.6875 10.625 9.6875Z" fill="#6746EC"/>
<path d="M3.125 12.1875H2.875C2.59886 12.1875 2.375 12.4114 2.375 12.6875V12.9375C2.375 13.2136 2.59886 13.4375 2.875 13.4375H3.125C3.40114 13.4375 3.625 13.2136 3.625 12.9375V12.6875C3.625 12.4114 3.40114 12.1875 3.125 12.1875Z" fill="#6746EC"/>
<path d="M5.625 12.1875H5.375C5.09886 12.1875 4.875 12.4114 4.875 12.6875V12.9375C4.875 13.2136 5.09886 13.4375 5.375 13.4375H5.625C5.90114 13.4375 6.125 13.2136 6.125 12.9375V12.6875C6.125 12.4114 5.90114 12.1875 5.625 12.1875Z" fill="#6746EC"/>
<path d="M8.125 12.1875H7.875C7.59886 12.1875 7.375 12.4114 7.375 12.6875V12.9375C7.375 13.2136 7.59886 13.4375 7.875 13.4375H8.125C8.40114 13.4375 8.625 13.2136 8.625 12.9375V12.6875C8.625 12.4114 8.40114 12.1875 8.125 12.1875Z" fill="#6746EC"/>
<path d="M10.625 12.1875H10.375C10.0989 12.1875 9.875 12.4114 9.875 12.6875V12.9375C9.875 13.2136 10.0989 13.4375 10.375 13.4375H10.625C10.9011 13.4375 11.125 13.2136 11.125 12.9375V12.6875C11.125 12.4114 10.9011 12.1875 10.625 12.1875Z" fill="#6746EC"/>
<path d="M13.125 9.6875H12.875C12.5989 9.6875 12.375 9.91136 12.375 10.1875V10.4375C12.375 10.7136 12.5989 10.9375 12.875 10.9375H13.125C13.4011 10.9375 13.625 10.7136 13.625 10.4375V10.1875C13.625 9.91136 13.4011 9.6875 13.125 9.6875Z" fill="#6746EC"/>
</svg>
