<svg width="121" height="121" viewBox="0 0 121 121" fill="none" xmlns="http://www.w3.org/2000/svg">
<path d="M118.575 48.6142C116.794 49.7062 115.015 50.9774 113.056 52.0712C112.52 52.2555 111.802 52.0833 111.447 52.445C110.204 53.5318 110.393 54.6048 111.837 55.6656C112.198 56.0204 112.558 56.196 113.282 56.9055C109.162 56.9454 65.7426 86.7438 62.1603 86.7785C58.9363 86.8098 113.294 58.1593 110.249 58.1888C108.816 58.2027 117.48 46.4752 117.504 48.9828C125.74 48.5447 106.679 59.4773 114.535 56.8934C114.537 57.0725 114.72 57.429 114.721 57.6081C113.473 58.1576 112.405 58.8845 111.157 59.434C106.338 61.272 101.336 62.7535 96.6985 64.7689C94.0222 65.8696 91.3511 67.5077 89.4 69.4971C86.7375 72.0307 84.0664 73.6688 80.6754 74.9556L118.575 48.6142ZM120.067 54.6902C118.987 54.1633 117.907 53.6364 116.648 53.1112L120.067 54.6902Z" fill="#101215"/>
<path d="M56.9331 83.4253C56.2062 82.3576 55.6585 81.2882 54.7543 80.4013C51.1407 77.2119 47.5289 74.2017 43.9171 71.1914C47.8542 70.795 51.7895 70.2195 55.7265 69.8231C59.3054 69.4301 62.8877 69.3954 66.2891 69.1833C69.3323 68.9747 72.3773 68.9452 75.4188 68.5575C77.2082 68.361 79.3645 69.0566 80.7783 67.0724C80.9557 66.8916 81.8547 67.2411 82.2129 67.2377C83.8146 66.1474 83.9781 64.5336 84.1398 62.7407C84.2946 60.2314 84.9885 57.8959 85.1434 55.3866C85.4755 52.6964 85.6286 50.0079 85.7834 47.4986C85.9417 45.3475 86.1017 43.3755 86.4391 41.2226C86.7713 38.5324 87.4635 36.0179 87.9748 33.326C88.14 31.8913 88.3053 30.4567 88.4688 28.8429C90.0981 30.6184 91.5484 32.3957 93.1743 33.813C95.3428 35.7624 97.5095 37.5327 99.8554 39.3013C102.02 40.8925 104.361 42.1238 105.46 44.6209C105.641 44.7983 105.823 45.1548 106.366 45.687C106.176 44.614 106.17 43.8976 106.164 43.3602C106.523 43.3568 106.7 43.1759 106.7 43.1759C107.425 44.0645 107.792 44.9566 108.514 45.487C109.78 46.7287 111.223 47.7895 112.665 48.6712C113.026 49.0259 113.743 49.019 114.28 49.0138C114.273 48.2973 114.445 47.5791 114.084 47.2243C112.816 45.8036 111.369 44.3846 109.924 43.1447C105.952 39.9588 101.626 37.1346 97.6539 33.9487C94.4055 31.4723 90.9781 28.9977 89.1505 25.2537C88.601 24.0051 85.1995 24.2172 84.3161 25.4797C82.0206 28.9054 79.1825 31.799 76.1619 34.3361C72.9638 37.0541 70.4875 40.3024 67.4703 43.1978C66.2287 44.4637 64.6253 45.375 63.2028 46.4635C60.8899 48.0981 58.5753 49.5536 56.2625 51.1882C53.7705 52.8245 51.2785 54.4609 48.9674 56.2746C46.1206 58.2726 43.4547 60.448 40.608 62.4461C39.1837 63.3555 37.7578 64.0859 36.5144 65.1727C34.7371 66.623 34.9232 67.3377 36.7265 68.5741C39.794 70.8731 43.0389 72.9912 45.929 75.4711C48.8174 77.7718 51.3511 80.4343 54.0604 82.7367C54.6029 83.2689 55.6793 83.4375 56.3993 83.7888C56.401 83.9679 56.5766 83.6079 56.9331 83.4253ZM39.0428 67.2978C40.1123 66.75 40.827 66.564 41.3609 66.2005C44.7415 63.8391 47.9412 61.3002 51.3201 58.7596C54.1651 56.5825 57.0119 54.5844 59.8569 52.4073C62.5245 50.411 65.1922 48.4147 67.6789 46.241C70.8735 43.1648 73.7064 39.7339 76.8992 36.4786C79.3825 33.9467 81.8675 31.5939 84.3526 29.2411C85.2394 28.3368 86.1263 27.4326 87.0132 26.5283C87.1923 26.5266 87.3732 26.7039 87.5523 26.7022C87.5593 27.4186 87.568 28.3143 87.3958 29.0324C86.7123 32.4426 85.6688 35.6771 85.1645 39.0854C84.4845 42.8538 84.3418 46.6169 83.8409 50.3835C83.3452 54.6875 82.6722 59.1723 81.9974 63.478C82.0008 63.8362 81.6461 64.1979 81.4687 64.3788C80.9366 64.9213 80.4044 65.4639 79.5158 66.189C78.6185 66.0186 77.1821 65.6743 75.9283 65.6864C72.7042 65.7176 69.4854 66.2863 66.2596 66.1384C62.4964 65.9957 58.7437 66.9277 54.8015 66.7868C49.7863 66.8354 44.5936 67.0649 39.0428 67.2978Z" fill="#101215"/>
<path d="M13.6271 87.9655C17.7432 87.5674 21.1203 84.8477 24.8679 83.3783C28.6154 81.9089 31.9995 79.9057 35.5644 78.0799C35.5627 77.9008 35.5592 77.5425 35.5575 77.3634C35.0184 77.1895 34.2985 76.8382 33.942 77.0208C29.8397 78.8519 25.7392 80.8621 21.4578 82.6949C19.1397 83.7921 16.8216 84.8894 14.5035 85.9866C13.9679 86.1709 13.6149 86.7117 13.2601 87.0734C13.2653 87.6108 13.4462 87.7881 13.6271 87.9655Z" fill="#101215"/>
<path d="M46.3979 86.9313C45.5075 87.4773 44.8032 88.738 44.2485 86.9521C39.6002 87.8928 28.7332 94.0886 27.6828 96.6066C29.1123 96.2345 30.3608 95.685 31.9694 95.3111C31.4269 94.779 31.0652 94.4242 30.5244 94.0712C32.4946 94.0521 34.1049 93.8574 35.8961 93.84C35.7013 92.2297 36.0561 91.868 37.6716 92.2106C38.7498 92.5584 40.1792 92.1863 41.0696 91.6403C43.2085 90.5448 45.8935 90.3397 46.3979 86.9313Z" fill="#101215"/>
<path d="M4.15492 90.2063C2.72721 90.7576 1.47866 91.3071 0.409175 91.8549C3.64365 92.8983 10.4292 90.6829 11.4813 88.344C9.32148 87.2902 8.08157 88.7352 7.02077 90.1786C5.95649 91.2637 5.06264 91.4515 4.15492 90.2063Z" fill="#101215"/>
</svg>
