<svg width="72" height="72" viewBox="0 0 72 72" fill="none" xmlns="http://www.w3.org/2000/svg">
<path d="M56.8115 18.0607C56.6547 20.593 56.0122 23.0712 54.919 25.3597C54.6021 26.0088 54.9899 26.5568 55.3054 27.1511C56.3918 29.1981 58.5357 29.7997 60.2626 30.9815C62.0863 32.2726 63.6709 33.873 64.9451 35.7105C65.4681 36.437 65.543 37.4506 65.5147 38.1185C65.442 39.834 65.9524 41.4741 65.8021 43.206C65.6293 45.1967 66.1127 47.2283 65.7227 49.2476C65.5955 49.9064 66.1023 50.0482 66.6242 50.1048C67.3731 50.186 68.1471 50.4346 68.8649 50.3215C70.4181 50.0767 71.0063 51.3531 71.9281 52.0842C72.2796 52.363 71.2565 54.679 70.7107 54.716C68.0936 54.8932 65.9589 56.5496 63.4325 57.0124C61.9385 57.2861 60.7309 56.6048 59.5073 56.0531C58.2252 55.4751 56.8136 55.5769 55.6772 55.8043C52.1209 56.5162 48.5415 56.7141 44.9541 57.0474C41.8847 57.3326 38.7718 56.6366 35.8046 57.2991C33.816 57.7431 31.8694 56.9381 29.9471 57.6631C29.0892 57.9867 28.0959 57.5394 27.2494 57.3957C24.5732 56.9413 21.929 57.6266 19.2711 57.3026C18.3339 57.1883 17.3213 57.6097 16.3553 57.8384C15.0651 58.1438 13.8127 58.1048 12.678 57.3893C12.1288 57.0431 11.5524 56.8138 11.0315 57.1387C8.01366 59.0214 4.68809 58.3759 1.45698 58.3155C-0.359325 58.2815 0.34743 56.502 0.0941182 55.5772C-0.326169 54.0428 0.70959 53.1532 2.23648 52.8661C3.37661 52.6517 3.95929 52.0406 3.57065 50.7978C2.73159 48.1147 3.60948 45.4742 3.85858 42.8333C4.1594 39.6441 5.65224 37.0684 8.15839 34.971C9.80876 33.6428 11.2995 32.1268 12.6006 30.4536C12.9778 29.9485 13.6028 29.8756 13.9883 29.149C15.0873 27.0771 14.4088 24.9631 14.3595 22.9538C14.2511 20.2827 13.8191 17.6346 13.0728 15.068C12.9813 14.7359 13.0352 14.1314 13.6059 14.4579C14.1951 14.795 15.6611 13.7236 15.3653 15.1972C14.9613 17.2092 15.4348 18.9375 15.9448 20.825C16.3746 22.4159 15.7974 24.2758 16.2072 25.8774C16.8546 28.4073 15.5831 30.2377 14.5314 32.1815C13.7978 33.5374 12.2199 34.0474 11.2276 35.2488C10.0792 36.6393 8.44167 37.6145 7.0859 38.8467C6.36638 39.5006 6.32407 40.5999 6.0398 41.4386C4.95675 44.634 3.83359 47.9196 5.36093 51.3481C5.75864 52.2408 5.92735 52.9108 7.27587 52.4273C9.68646 51.5629 10.1233 51.3285 11.272 49.2277C11.8651 48.143 12.4172 47.0709 13.4277 46.17C14.7073 45.0293 16.2604 45.0043 17.5934 44.9197C19.0519 44.8272 20.5227 44.5858 22.0039 44.5596C24.3544 44.5181 26.7899 44.8252 28.8286 42.8641C29.8205 41.9101 31.3749 41.4815 32.9488 41.4618C34.2007 41.4462 35.426 41.0633 36.7279 41.2639C38.336 41.5118 39.81 41.9625 41.033 43.0704C41.2768 43.2913 41.4869 43.5309 41.8624 43.3158C41.9986 43.2277 42.1594 43.1859 42.3212 43.1966C46.2242 43.9246 50.2178 42.9538 54.1199 43.8708C56.2914 44.3811 57.9499 46.3835 57.7922 48.5777C57.6465 50.606 57.6465 50.6056 59.5901 50.5769C59.6973 50.5753 59.8054 50.6011 59.9121 50.5956C61.0954 50.535 62.5789 51.521 63.3947 50.2777C64.347 48.8263 64.308 46.9244 64.0356 45.2816C63.8479 44.2946 63.8424 43.2815 64.0196 42.2926C64.5042 39.8459 63.7112 37.6806 62.6079 35.6279C61.9228 34.3531 60.3691 34.0059 59.1854 33.4219C57.1341 32.4098 55.8779 30.4751 53.8931 29.4014C53.0269 28.9328 52.7115 27.6703 52.8278 26.5393C53.1309 23.4882 53.8302 20.4898 54.9081 17.6202C55.1868 16.8828 55.1348 16.0252 55.2924 15.2343C55.3863 14.7636 55.1474 13.9521 55.9532 14.0022C56.7413 14.0513 57.1295 14.6975 57.0823 15.4879C57.031 16.348 56.9053 17.2037 56.8115 18.0607ZM36.7565 43.8376C33.3694 43.2813 31.1444 43.8681 29.1305 44.841C26.9753 45.8821 26.2431 48.1477 25.7646 50.3321C25.3422 52.2602 25.9721 53.2266 27.8774 53.8101C28.928 54.1319 29.9196 54.608 30.9578 54.9537C33.3626 55.7543 35.4416 55.2971 37.4647 54.0613C38.0161 53.6621 38.616 53.3347 39.2499 53.0872C41.448 52.3899 42.3107 50.2262 41.5949 47.9549C40.669 45.017 38.2462 44.2925 36.7565 43.8376ZM53.5664 51.7381C54.3943 51.8285 54.9276 51.8886 55.4614 51.9446C56.018 52.003 56.3695 51.6484 56.2406 51.1963C55.8842 49.9457 55.9759 48.688 55.9281 47.4246C55.9156 47.0949 55.4425 46.5327 55.1418 46.505C53.2871 46.3344 51.5378 45.3428 49.7808 45.3464C47.8935 45.3502 46.0094 45.2399 44.1243 45.2129C42.7935 45.1938 42.4735 45.5716 42.9434 46.8324C43.3141 47.827 43.7013 48.7713 43.6136 49.9019C43.5351 50.9151 44.3855 51.759 45.2302 51.3541C46.8342 50.5851 48.5376 51.775 50.0631 50.8273C50.2407 50.7665 50.4303 50.7496 50.6158 50.7779C50.8014 50.8063 50.9773 50.8791 51.1288 50.9902C51.9372 51.6928 52.9231 51.621 53.5664 51.7381V51.7381ZM24.6975 48.3583L24.6913 48.3576C24.7436 47.8769 24.8096 47.3971 24.8445 46.9151C24.8833 46.3776 24.6391 46.0874 24.08 46.1908C21.5462 46.6592 18.7923 46.0762 16.5149 47.7961C16.2215 48.0229 15.8687 48.1593 15.4993 48.1889C14.0082 48.2341 13.4525 49.4882 12.9179 50.451C12.2141 51.7185 12.6672 52.2221 14.1971 52.3621C14.7198 52.3895 15.2435 52.3375 15.7507 52.2079C17.8473 51.771 19.9772 51.0867 22.1141 51.4458C23.7851 51.7266 24.0741 50.6463 24.5383 49.6314C24.7079 49.2606 24.6511 48.7857 24.6975 48.3583ZM68.2591 52.3632C67.1386 52.526 66.0399 53.5537 65.0504 52.9473C63.4597 51.9725 61.8855 52.7132 60.3209 52.5546C59.9659 52.5186 59.5441 52.3847 59.304 52.7984C59.0713 53.1993 59.3231 53.4971 59.563 53.8063C59.8527 54.1795 60.2365 54.5108 60.6405 54.2008C61.3012 53.6939 61.9835 53.8592 62.6424 53.9905C64.4899 54.3586 66.1699 53.7185 67.8858 53.2412C68.3058 53.1244 68.3565 52.8698 68.2591 52.3632ZM3.99521 55.2327C5.96905 55.6562 7.89231 56.4073 9.92528 55.5616C10.1973 55.4485 10.4027 55.3334 10.409 55.0225C10.4171 54.6259 10.17 54.4503 9.81395 54.4131C9.39036 54.3689 8.87747 54.1784 8.55439 54.3452C7.13925 55.0385 5.56642 55.3446 3.99521 55.2327H3.99521Z" fill="#101215"/>
<path d="M22.5883 36.2352L22.9412 34.4705L30.353 34.1176L36.7059 34.4705L43.7647 32.7058L44.8235 33.7646L45.5294 36.2352L45.1765 39.7646L37.0588 37.647L32.8236 39.7646L30.7059 37.9999L25.0588 39.7646L23.2941 39.0588L22.5883 36.2352Z" fill="#F6E018"/>
<path d="M44.5705 33.2887C46.1064 35.0167 46.2069 37.1048 45.8849 39.2122C45.8625 39.4333 45.784 39.645 45.6568 39.8269C45.5296 40.0089 45.3579 40.1552 45.1582 40.2517C44.9585 40.3482 44.7374 40.3918 44.5161 40.3782C44.2948 40.3647 44.0806 40.2945 43.8941 40.1743C42.467 39.2959 40.9125 39.4088 39.399 39.16C39.1868 39.1251 38.8935 39.1894 38.7698 39.0702C37.2849 37.6384 36.0128 38.9942 35.0024 39.6296C33.4551 40.6026 32.3539 40.5042 31.2057 39.2242C30.8851 38.8668 30.5 38.6674 30.0876 39.0336C28.3856 40.5447 26.1497 39.9442 24.2046 40.5091C23.3419 40.7597 22.597 40.459 22.4966 39.0709C22.4011 37.75 21.7802 36.3052 22.0412 35.0706C22.4828 32.9821 25.8357 31.9853 27.9652 32.8533C29.596 33.5179 31.3493 33.176 33.0479 32.9235C33.4047 32.8704 33.8996 32.5135 34.0731 32.6431C36.9006 34.756 39.5459 32.8559 42.2403 32.3113C43.1431 32.1288 43.9627 31.9659 44.3375 33.1002C43.1849 32.5843 42.2202 33.5141 41.1263 33.5195C40.0144 33.525 39.1137 34.075 38.2587 34.7634C37.6087 35.2868 37.5236 36.1797 38.0567 36.3302C39.0827 36.6198 39.8874 37.8759 41.1262 37.2216C41.6119 36.9651 41.8108 37.1715 42.0354 37.4978C42.5549 38.2522 43.244 38.5949 44.1013 38.1777C44.5015 37.9914 44.8129 37.6554 44.9688 37.2418C45.1248 36.8281 45.1129 36.3697 44.9357 35.9647C44.546 35.0537 44.7604 34.1644 44.5705 33.2887ZM27.4243 34.8029C26.4547 34.697 25.7323 34.4588 25.0787 34.5833C24.0528 34.7788 22.8142 34.8683 22.9354 36.5095C23.0479 38.0329 23.67 38.961 24.9042 38.7377C25.9496 38.5487 27.151 38.6489 28.0147 37.8488C28.7289 37.1873 30.5087 37.4611 30.1637 35.9686C29.8201 34.4818 28.2237 35.0241 27.4243 34.8029ZM35.6777 36.952C35.7795 36.5104 35.4559 36.2627 35.2354 35.967C34.9216 35.5462 34.6703 35.8726 34.4474 36.0582C33.9276 36.4911 33.3958 36.7502 32.6839 36.5569C32.2848 36.4486 31.7891 36.3701 31.5697 36.8968C31.3317 37.468 31.7775 37.834 32.1127 38.1319C32.8498 38.7869 35.506 37.8776 35.6777 36.952V36.952Z" fill="#101215"/>
</svg>
