<svg width="330" height="435" viewBox="0 0 330 435" fill="none" xmlns="http://www.w3.org/2000/svg">
<g clip-path="url(#clip0)">
<path d="M210.421 181.371L259.421 223.371L280.421 135.371L210.421 181.371ZM245.453 176.879C245.313 177.036 245.206 177.219 245.139 177.418C245.1 177.587 245.087 177.76 245.099 177.932C245.13 179.286 245.16 180.641 245.191 181.996C243.553 181.123 242.048 180.021 240.721 178.723C238.864 179.52 237.085 180.489 235.409 181.618C235.69 180.333 235.971 179.048 236.251 177.763C236.292 177.626 236.301 177.482 236.277 177.341C236.239 177.222 236.175 177.112 236.092 177.019C235.011 175.659 233.565 174.595 232.648 173.119C234.267 172.987 235.879 172.788 237.483 172.52C237.719 172.524 237.951 172.452 238.143 172.314C238.336 172.177 238.479 171.981 238.551 171.756C238.873 171.078 239.18 170.394 239.474 169.703C239.576 169.462 241.204 166.417 241.581 166.496C241.861 166.555 242.693 170.239 242.779 170.534C243.033 171.229 243.338 171.904 243.694 172.553L249.626 173.111C248.291 174.43 246.626 175.413 245.453 176.879H245.453ZM259.187 192.946C258.481 193.306 257.803 193.72 257.159 194.183L257.341 200.571C255.762 199.323 254.498 197.679 252.784 196.622C252.599 196.494 252.389 196.404 252.168 196.358C251.984 196.339 251.798 196.348 251.617 196.384C250.179 196.594 248.741 196.803 247.302 197.013C248.017 195.155 248.993 193.409 250.201 191.827C249.11 189.954 247.845 188.188 246.424 186.551C247.829 186.682 249.233 186.813 250.638 186.943C250.789 186.969 250.944 186.959 251.09 186.916C251.212 186.859 251.321 186.777 251.409 186.676C252.715 185.348 253.658 183.669 255.109 182.5C255.462 184.206 255.885 185.895 256.38 187.568C256.407 187.82 256.514 188.057 256.685 188.244C256.857 188.431 257.085 188.557 257.334 188.605C258.097 188.859 258.866 189.096 259.639 189.318C259.91 189.396 263.364 190.73 263.329 191.141C263.303 191.448 259.491 192.815 259.187 192.946ZM261.835 173.925C261.102 172.782 260.37 171.64 259.637 170.498C259.567 170.368 259.468 170.256 259.348 170.171C259.233 170.112 259.107 170.078 258.978 170.072C257.197 169.867 255.366 170.146 253.62 169.739C254.705 168.461 255.735 167.139 256.71 165.774C256.886 165.605 257.002 165.383 257.042 165.142C257.082 164.901 257.043 164.654 256.932 164.437C256.672 163.708 256.397 162.984 256.108 162.266C256.006 162.015 254.972 158.606 255.305 158.389C255.553 158.228 258.847 160.308 259.126 160.461C259.817 160.783 260.533 161.053 261.265 161.266L266 157.345C265.989 159.282 265.491 161.214 265.705 163.139C265.717 163.356 265.773 163.568 265.869 163.762C265.964 163.913 266.081 164.049 266.215 164.165C267.226 165.132 268.236 166.098 269.247 167.064C267.415 167.622 265.513 167.916 263.598 167.937C262.824 169.873 262.234 171.878 261.835 173.925V173.925Z" fill="#9A82F9"/>
<path d="M18.421 249.371L12.421 254.371L3.42102 281.371L35.421 289.371V276.371L43.421 269.371L56.421 264.371L18.421 249.371Z" fill="#9A82F9"/>
<path d="M77.4214 107.371C77.4214 107.371 81.4214 120.371 79.4214 130.371C77.4214 140.371 68.4214 175.371 68.4214 175.371L63.4214 180.371L65.4214 184.371L73.4214 187.371C73.4214 187.371 83.4214 163.371 94.4214 151.371C105.421 139.371 115.421 129.371 115.421 129.371L96.4214 115.371L89.4214 106.371L77.4214 107.371Z" fill="#F6E018"/>
<path d="M69.4214 227.371L66.4325 235.743L72.4214 255.371L74.4214 259.371L69.4214 295.371L50.4214 306.371L73.4214 328.371L107.421 358.371L97.4214 378.371L92.4214 410.371C92.4214 410.371 143.421 402.371 201.421 419.371C273.668 440.547 323.421 427.371 323.421 427.371V397.371L302.421 338.371L272.421 306.371L251.421 293.371L237.421 303.371L205.421 308.371L183.421 304.371L157.421 286.371L141.421 295.371L127.421 294.371L109.421 285.371L69.4214 227.371Z" fill="#F6E018"/>
<path d="M103.751 60.9092C102.922 59.7013 102.019 61.4357 101.313 60.1686C103.112 58.5326 106.125 57.3327 107.522 58.2039C110.259 59.9115 112.575 58.5629 115.028 58.6004C121.935 58.706 128.122 60.0723 133.027 65.6552C138.592 71.9886 145.181 75.5277 154.342 73.6023C160.35 72.3395 163.688 78.0137 167.329 81.7015C172.592 87.0321 173.664 94.084 173.801 101.215C173.899 106.324 165.64 115.466 160.302 115.903C157.492 116.133 156.872 116.935 156.506 119.645C155.581 126.492 150.646 128.915 144.464 125.705C142.075 124.465 140.824 124.064 138.447 126.337C132.872 131.666 126.066 134.145 118.172 131.915C114.816 130.966 112.537 132.291 109.964 134.719C99.9986 144.181 91.6803 155.237 85.3512 167.434C82.7865 172.306 79.0715 176.515 76.9339 181.674C76.3945 182.976 75.7703 183.864 76.9424 185.251C81.457 190.592 81.0106 195.429 75.4276 200.046C73.4615 201.672 73.5744 202.853 74.9847 204.621C80.7922 211.9 80.6585 219.482 74.4059 226.789C72.8188 228.644 72.7245 229.828 73.9652 232.004C82.677 247.289 93.3778 261.184 104.373 274.794C109.557 281.21 115.67 287.716 124.11 289.624C133.088 291.653 142.13 289.221 150.906 286.941C152.833 286.441 153.147 284.778 151.49 282.649C145.214 274.592 141.227 265.326 137.873 255.691C137.941 255.673 137.469 255.662 137.384 255.837C132.751 265.455 129.031 266.563 119.672 261.332C112.545 257.348 105.241 253.675 98.177 249.586C95.672 248.136 92.3088 246.341 92.9098 242.922C93.1728 241.084 93.91 239.346 95.0488 237.88C96.1876 236.414 97.6887 235.27 99.4042 234.56C108.01 230.894 116.354 232.164 124.668 235.369C127.58 236.492 130.426 237.788 133.855 239.238C133.766 230.951 135.919 223.364 137.364 215.66C138.185 211.344 140.256 207.366 143.32 204.218C148.563 198.761 154.543 194.115 160.438 189.387C162.657 187.608 164.589 185.383 167.965 186.904C169.179 187.451 170.076 186.303 170.948 185.465C175.73 180.87 181.756 178.825 188.102 178.511C191.001 178.368 194.326 178.141 197.083 179.056C204.217 181.421 209.426 177.419 215 174.479C236.709 163.027 255.962 148.026 275.059 132.805C277.157 131.133 279.262 129.47 281.374 127.816C283.207 126.371 285.645 125.599 287.341 126.904C289.207 128.339 288.294 131.214 287.396 132.867C280.525 145.511 276.728 159.076 274.454 173.183C273.689 177.926 272.028 182.536 271.416 187.289C269.923 198.888 268.257 210.361 264.619 221.595C261.647 230.772 262.851 240.571 264.614 249.817C266.142 257.833 262.944 264.559 261.411 271.78C260.309 277.5 258.043 282.932 254.752 287.739C253.241 289.883 253.778 291.657 256.916 293.291C270.818 300.525 282.02 310.969 292.768 322.443C304.235 334.686 309.335 350.066 317.297 364.029C318.932 366.894 319.061 370.143 319.927 373.202C323.649 386.352 326.639 399.674 329.078 413.12C329.66 416.325 329.573 419.513 327.898 422.409C326.07 425.544 324.895 429.016 324.443 432.617C324.288 433.843 324.028 435.147 322.439 434.914C320.935 434.693 321.115 433.415 320.974 432.176C320.826 430.702 320.911 429.213 321.226 427.766C322.155 422.962 321.555 418.311 320.549 413.456C319.562 408.696 320.774 403.547 319.228 398.668C315.086 385.592 315.485 371.472 309.421 358.758C301.724 342.616 292.57 327.616 279.648 315.094C272.215 307.891 263.369 302.524 255.334 296.109C251.671 293.185 248.808 294.433 245.659 296.843C235.176 304.866 224.155 310.279 210.06 308.055C204.284 307.144 197.618 310.974 191.921 307.762C182.428 302.408 171.568 299.274 163.727 291.187C161.487 288.876 160.052 288.367 157.29 290.753C151.854 295.448 144.578 294.326 138.116 295.799C127.891 298.132 119.402 297.122 110.949 288.794C103.747 281.698 98.0798 273.658 91.5846 266.166C82.8906 256.137 76.8411 244.411 70.1593 233.033C69.638 237.646 72.2389 241.205 74.2188 244.778C75.5636 247.099 76.4265 249.667 76.7561 252.329C77.0857 254.991 76.8752 257.692 76.137 260.271C74.9216 264.793 76.4235 269.689 74.0673 274.019C73.5513 274.967 74.0645 275.315 74.9135 275.872C94.744 288.877 115.129 300.919 137.164 309.8C145.226 313.049 153.95 314.439 162.692 314.943C171.354 315.442 179.868 317.83 188.681 316.63C191.997 316.178 195.388 316.271 198.681 315.418C200.13 315.044 201.661 314.702 201.8 317.167C201.913 319.168 201.449 319.795 199.265 320.034C190.155 321.031 181.263 322.54 171.924 320.251C165.396 318.651 158.424 318.457 151.656 317.47C137.763 315.431 124.418 310.637 112.405 303.369C102.572 297.532 92.1811 292.519 82.2473 286.74C80.15 285.519 78.7279 283.661 76.1894 282.025C75.4444 295.234 71.5858 305.697 55.5752 305.301C57.7282 311.329 62.6794 314.863 67.2975 318.533C76.7556 326.05 85.7173 334.135 94.5489 342.342C108.201 355.027 123.007 365.739 140.708 372.114C149.516 375.285 158.651 376.389 167.88 376.792C176.946 377.188 185.995 377.86 195.048 378.308C205.087 378.804 215.111 377.486 225.033 375.726C230.798 374.704 236.575 373.752 242.463 374.771C242.893 374.781 243.314 374.901 243.685 375.119C244.056 375.337 244.365 375.647 244.582 376.018C232.853 378.754 220.771 379.54 209.106 382.066C194.359 385.259 180.261 380.816 165.862 380.896C153.357 380.966 141.985 376.268 130.369 372.69C126.935 371.632 123.86 369.308 120.737 367.376C118.413 365.938 108.189 358.114 106.844 360.604C101.298 370.513 97.4914 381.3 95.5893 392.495C94.4146 399.869 94.7968 407.594 91.7156 414.632C91.3342 415.503 91.9391 417.461 89.9501 416.972C88.4499 416.603 88.8029 415.085 88.7171 413.968C88.3761 408.111 88.685 402.235 89.6382 396.446C91.5297 383.418 95.7842 371.04 100.686 358.914C101.899 355.912 102.981 354.195 100.506 352.171C89.2117 342.934 85.3943 342.179 75.1302 331.889C67.6547 324.395 57.8132 319.952 51.2352 311.37C49.1272 308.619 44.3538 307.618 40.5975 306.491C34.4405 304.644 28.1314 303.29 21.8615 301.835C15.2927 300.312 9.50365 297.038 3.84678 293.623C0.103277 291.363 -0.869223 287.39 0.760177 283.475C5.26141 272.659 7.99472 261.207 12.498 250.45C16.3438 241.263 23.5287 234.48 32.0398 229.25C32.8888 228.706 33.7788 228.228 34.702 227.821C41.2821 225.081 46.0404 221.727 44.0771 213.02C42.7119 206.965 47.563 202.594 52.1695 200.082C58.7929 196.471 57.7928 190.876 57.1679 185.624C56.4728 179.783 56.8283 178.024 62.3861 178.148C65.3145 178.213 65.6267 177.153 65.9484 175.041C68.4885 158.363 75.1211 142.484 74.541 125.092C74.3636 119.775 74.8919 114.667 72.8173 109.623C72.3691 108.18 71.397 106.956 70.0922 106.193C66.2062 104.111 63.3604 101.333 63.5629 96.4274C63.6813 93.5576 61.5387 94.1532 60.0183 94.6494C54.8051 96.3508 49.9633 94.0954 45.4131 92.6342C35.8596 89.5661 31.9969 76.83 37.9803 68.6639C40.3409 65.4421 38.7359 62.2465 39.6602 59.0769C41.8666 51.5098 49.869 44.55 57.8368 44.1902C58.6728 44.1524 59.7736 43.6842 60.1691 44.4676C62.6431 49.3682 66.2346 46.6834 69.5692 46.0119C78.128 44.2885 85.8251 46.8839 93.0455 51.1153C94.1952 51.8302 95.1493 52.8195 95.8221 53.9944C96.4949 55.1692 96.8654 56.4928 96.9001 57.8462C97.4192 63.9852 97.7667 64.0709 103.751 60.9092ZM147.22 118.427C148.718 116.478 150.886 116.314 151.517 113.871C152.146 111.435 153.477 109.362 157.046 110.489C159.669 111.317 161.629 109.424 163.298 107.245C166.971 102.451 166.6 96.8721 166.874 91.3749C167.057 87.7069 163.969 86.4481 161.971 84.2848C156.19 78.026 151.571 76.8212 144.329 80.5119C142.342 81.524 141.498 80.8392 140.786 79.3445C137.735 72.9391 132.327 68.894 126.961 64.5794C118.116 57.468 100.496 62.4088 97.6123 73.6053C95.0017 71.8835 94.2592 69.6504 94.2623 66.7789C94.269 60.4617 92.4583 55.4616 85.3527 53.6412C82.4414 52.8954 79.4949 52.2485 76.5895 51.4639C71.5748 50.1096 67.7684 52.0273 65.7045 56.3944C64.0978 59.794 63.4508 58.3975 62.4056 56.3805C60.5723 52.8425 57.7148 52.4448 54.3331 53.7022C50.1588 55.2543 46.856 58.0788 43.8555 61.2432C43.5376 61.5322 43.2838 61.8845 43.1103 62.2776C42.9369 62.6706 42.8478 63.0956 42.8487 63.5253C42.8496 63.9549 42.9404 64.3795 43.1155 64.7719C43.2905 65.1642 43.5458 65.5155 43.8649 65.8031C46.5552 68.48 46.5736 72.0394 47.6472 75.303C45.8152 76.1302 45.1232 72.8131 43.165 74.7138C40.4003 77.3972 40.4146 81.9477 42.7238 85.1369C46.3232 90.1081 58.9115 90.6013 65.254 86.6527C69.2266 84.1795 69.4855 86.2077 69.1912 89.2183C68.8994 92.5515 68.3725 95.8598 67.6145 99.1187C66.9248 101.949 68.479 103.414 70.4794 104.288C75.0179 106.27 84.927 103.499 87.6067 99.3951C88.5059 98.0179 89.6524 96.7356 90.8045 96.9294C92.1611 97.1576 91.6202 99.2457 92.1395 100.411C93.7905 104.117 90.6988 108.583 94.5188 112.141C96.3464 113.843 98.3602 115.335 100.191 117.029C107.214 123.53 115.488 127.093 125.235 126.595C128.925 126.407 131.778 124.27 134.747 122.393C137.062 120.93 136.542 118.919 136.321 116.707C136.181 115.306 137.876 114.641 139.078 114.215C140.622 113.668 140.805 115.112 141.471 116.074C143.682 119.269 146.717 120.65 150.599 119.379C150.91 119.277 151.076 118.731 151.599 117.97C149.845 118.153 148.562 118.287 147.22 118.427ZM141.632 253.642C146.179 263.746 148.342 273.396 156.154 280.195C157.252 281.151 158.702 279.698 159.618 281.357C162.752 287.134 167.835 291.612 173.962 293.993C175.818 294.706 177.409 295.974 178.518 297.625C181.859 302.552 195.392 304.951 200.545 298.951C202.727 296.411 205.438 294.333 207.838 291.974C212.98 286.917 218.026 281.759 221.183 275.143C221.985 273.465 222.55 272.348 220.301 270.296C216.824 267.122 212.701 264.526 209.945 260.473C206.207 254.973 202.17 249.674 198.174 244.354C187.497 230.139 177.005 215.855 177.26 196.838C177.273 195.851 177.669 194.685 176.419 194.264C175.255 193.871 174.678 195.089 173.906 195.636C165.542 201.565 157.3 207.69 147.515 211.211C145.964 211.881 144.723 213.109 144.038 214.652C139.864 222.01 138.499 229.944 138.754 238.29C138.714 239.249 138.942 240.199 139.413 241.035C139.883 241.872 140.578 242.559 141.419 243.022C148.362 248.006 155.943 252.035 163.958 254.999C167.704 256.339 169.671 259.17 168.088 262.419C166.348 265.993 163.163 263.405 160.633 262.37C154.684 259.934 149.358 256.08 141.632 253.642ZM275.97 141.192C270.582 145.919 264.775 150.147 258.623 153.824C254.541 156.375 249.424 157.522 245.835 160.557C237.416 167.679 229.228 175.017 219.161 179.785C215.629 181.457 216.937 183.094 219.18 184.278C222.069 185.96 225.176 187.237 228.413 188.073C237.028 189.886 240.462 199.258 248.667 201.5C250.232 207.826 257.28 211.406 256.979 218.855C264.434 193.032 268.605 166.774 275.97 141.192V141.192ZM70.8632 271.04C70.7617 263.592 74.2679 256.674 70.7752 249.453C68.0849 243.892 65.6642 238.162 65.3771 231.777C65.3076 230.232 64.4557 227.529 63.6602 227.411C59.6223 226.815 61.1264 225.568 61.7116 222.692C62.5244 218.441 64.3681 214.455 67.081 211.083C69.5594 207.954 69.8093 204.145 70.8623 199.724C68.4296 201.057 68.824 202.598 68.4203 203.769C67.9857 205.029 68.2819 206.787 66.0966 206.632C67.3504 197.853 67.3504 197.853 60.9565 195.775C67.7822 210.511 59.9758 221.689 49.6358 226.339C40.2785 230.45 31.6209 235.997 23.9764 242.78C23.0438 243.615 21.3734 244.359 21.8144 245.865C22.2449 247.335 23.9168 247.189 25.2565 247.394C34.9427 248.874 44.1194 252.097 53.1287 255.807C57.4877 257.602 62.8298 259.414 64.0757 263.979C65.1918 268.069 67.738 269.068 70.8632 271.04ZM75.9939 107.321C80.9352 120.46 78.9862 133.097 77.0689 145.748C75.9481 153.144 72.0452 159.695 70.7924 167.068C70.0957 171.167 70.1856 175.732 67.5626 179.077C65.7777 181.354 65.9801 181.643 68.3719 182.694C71.0471 183.869 72.7367 184.244 73.6561 180.734C74.4533 178.172 75.4572 175.68 76.6578 173.281C83.5758 157.783 93.8869 144.703 105.811 132.827C108.421 130.228 109.237 128.887 105.136 126.831C99.3508 123.932 94.1853 120.036 91.0372 114.01C89.5785 111.218 83.663 108.114 80.4646 107.996C79.3012 107.953 78.1472 107.657 75.9939 107.321ZM50.658 265.364C47.5689 261.772 43.2492 261.409 39.8944 259.308C33.8533 255.357 26.8488 253.129 19.6352 252.863C18.1827 252.83 16.8132 252.443 16.0769 254.586C13.4633 262.194 10.5981 269.717 7.78642 277.256C7.13087 279.013 6.65632 280.563 9.38518 280.644C17.0453 280.872 24.1252 283.75 31.4217 285.586C34.4097 286.338 34.2342 285.619 33.9989 283.079C33.39 276.506 35.9414 271.604 42.1683 268.518C44.7527 267.237 47.6454 267.098 50.658 265.364ZM68.6688 274.913C63.6808 271.732 59.8811 265.672 52.5438 270.393C51.1411 271.296 48.3998 271.23 46.3689 271.912C40.4624 273.894 38.5454 276.145 39.9994 281.976C41.1233 286.483 41.3708 291.543 46.4596 294.746C51.7306 298.062 59.5545 299.145 64.3053 295.538C67.6936 292.966 71.679 280.741 70.1872 277.312C69.748 276.472 69.2402 275.669 68.6689 274.913L68.6688 274.913ZM209.991 302.19C224.313 303.426 235.421 298.77 245.129 288.941C239.19 288.417 236.871 283.43 232.806 280.999C229.412 278.97 227.165 278.341 224.742 282.482C220.708 289.375 216.745 296.4 209.991 302.19L209.991 302.19ZM44.138 302.733C41.6468 295.371 37.3253 292.251 31.9 290.1C24.3677 287.114 15.8694 288.551 8.49996 284.83C7.39589 284.273 5.65445 283.743 5.07134 285.548C4.60195 287.001 3.99848 288.685 6.12796 289.844C7.56821 290.627 8.76873 291.696 10.4622 292.204C21.2751 295.449 32.5878 296.972 44.138 302.733ZM124.326 241.469C116.587 236.344 109.955 235.626 102.578 238.504C101.714 238.816 100.953 239.362 100.382 240.082C99.8108 240.802 99.4519 241.667 99.3454 242.58C98.9552 244.588 99.8233 245.931 101.603 247.154C104.936 249.444 108.61 250.959 112.198 252.711C114.304 253.739 115.195 253.722 116.212 251.247C117.78 247.432 119.548 243.515 124.326 241.469L124.326 241.469ZM54.467 217.482C58.6606 213.899 60.734 210.306 59.8392 205.214C59.2869 202.071 58.0351 201.995 55.8807 203.467C52.941 205.475 51.0384 208.451 48.8599 211.179C46.5935 214.017 45.7509 217.287 48.5751 219.679C51.4496 222.113 53.0482 218.393 54.467 217.482ZM73.5787 188.686C71.4922 188.077 68.9995 187.168 66.4278 186.659C64.5458 186.286 62.083 184.558 61.0215 187.956C60.1627 190.706 60.6618 192.679 63.5801 194.087C65.5556 194.957 67.6152 195.621 69.7266 196.069C73.0757 196.917 73.0516 193.38 74.7131 192.036C75.9833 191.008 74.6369 189.994 73.5786 188.686H73.5787ZM134.982 250.668C131.226 246.361 127.49 246.818 123.347 251.783C122.056 253.332 120.562 255.104 121.906 257.198C123.19 259.198 124.986 260.926 127.719 260.41C130.091 259.962 132.244 259.013 133.279 256.563C133.54 256.024 133.577 255.403 133.383 254.836C133.189 254.27 132.78 253.802 132.243 253.535C131.373 252.974 130.238 252.555 129.484 253.448C128.377 254.758 129.964 254.91 130.589 255.524C131.743 256.657 130.82 257.237 129.841 257.694C128.309 258.41 126.662 259.358 125.31 257.556C124.762 256.892 124.473 256.053 124.497 255.193C124.521 254.333 124.855 253.51 125.438 252.878C127.97 249.984 131.004 248.625 134.982 250.668ZM69.4446 213.696C68.4536 215.968 64.756 217.728 67.5645 221.24C68.9777 223.008 70.7069 222.283 71.9217 220.976C73.0051 219.821 73.7066 218.361 73.9305 216.793C74.1543 215.226 73.8899 213.627 73.173 212.215C72.2424 210.318 70.9794 213.053 69.4446 213.696Z" fill="#101215"/>
<path d="M136.373 15.7118C134.176 14.1689 132.456 12.7009 132.068 10.4888C131.749 8.67433 127.665 5.24306 134.293 5.77211C136.599 5.95611 138.161 1.02921 141.943 0.239108C147.531 -0.927972 156.284 2.29926 158.633 7.2617C159.205 8.4697 158.689 10.5238 161.23 9.73936C161.73 9.58498 162.314 10.2148 161.891 11.1175C159.674 15.8475 157.051 20.4079 155.904 25.5908C155.561 27.1385 154.448 26.4438 153.508 26.183C151.588 25.6503 150.32 23.6055 147.984 23.822C147.79 25.4378 148.069 27.075 148.785 28.536C150.702 33.4228 148.362 36.0967 141.208 35.2658C135.781 34.6354 130.141 33.257 127.191 27.0617C125.422 23.345 126.469 21.4491 129.307 19.6527C131.416 18.3176 134.069 17.9604 136.373 15.7118ZM153.832 16.5177C155.724 15.5187 156.078 14.5114 155.693 12.6382C154.523 6.94066 150.589 6.06094 145.801 6.44547C143.62 6.62065 140.443 4.95347 139.609 7.90816C139.021 9.98838 142.044 10.6197 143.683 11.6817C144.346 12.1107 144.6 13.17 145.263 13.5971C147.786 15.361 150.757 16.3737 153.832 16.5177V16.5177ZM134.33 25.1104C135.765 25.9118 137.272 26.5765 138.832 27.0956C140.494 27.4663 142.488 29.8287 143.692 28.0242C144.468 26.9165 144.896 25.6024 144.922 24.2499C144.947 22.8975 144.568 21.5682 143.833 20.4324C142.347 18.2457 140.673 16.248 138.573 20.182C137.677 21.8615 136.054 23.1531 134.33 25.1104Z" fill="#101215"/>
</g>
<defs>
<clipPath id="clip0">
<rect width="329.404" height="434.941" fill="white"/>
</clipPath>
</defs>
</svg>
