<svg width="72" height="72" viewBox="0 0 72 72" fill="none" xmlns="http://www.w3.org/2000/svg">
<path d="M21.6389 27.682C20.7894 26.4071 19.9398 25.1323 19.1965 23.7513C18.6655 22.6889 18.4532 21.5203 17.9222 20.458C17.3913 19.0769 17.4974 17.5896 17.6036 16.1023C17.7098 14.4026 18.0284 12.7028 18.8779 11.2155C19.0903 10.7906 19.515 10.4719 19.7274 10.0469C19.9398 9.62199 20.1522 9.19705 20.4708 8.77211C20.7894 8.34717 21.2141 7.92223 21.6389 7.60352C22.7008 6.75364 23.7627 6.01 24.8246 5.16012C25.1432 4.94765 25.4617 4.94764 25.7803 4.73517C26.4175 4.41647 27.0546 4.09777 27.6917 3.77906C28.3289 3.56659 28.966 3.35412 29.497 3.14165C30.2403 2.82294 30.9837 3.14165 31.727 3.14165C32.6827 3.14165 33.5323 3.03541 34.488 3.14165C35.5499 3.24788 36.6118 3.56659 37.5675 3.67282C39.0542 3.88529 40.0099 4.94764 41.0718 5.79752C42.0275 6.54117 42.877 7.60352 43.6204 8.55964C44.2575 9.30329 44.7885 10.1532 45.3194 11.003C45.638 11.428 45.9566 11.8529 46.169 12.2779C46.2752 12.4903 46.3813 12.9153 46.2751 13.1277C46.0628 13.4465 46.2751 13.7652 46.2751 14.0839C46.2751 14.615 46.2751 15.1462 46.2751 15.5712C46.2751 15.6774 46.2751 15.8899 46.2751 15.9961C46.8061 16.7397 46.5937 17.4834 46.6999 18.227C46.6999 18.652 46.9123 19.0769 46.9123 19.3956C46.9123 19.9268 46.8061 20.3517 46.6999 20.8829C46.5937 21.4141 46.4875 22.0515 46.2751 22.5827C46.0628 23.1139 45.8504 23.5388 45.5318 24.07C45.4256 24.3887 45.5318 24.3887 45.7442 24.4949C47.1247 24.9198 48.5051 25.3448 49.4609 26.4071C49.8856 26.8321 50.4166 27.0446 51.0537 27.257C52.0094 27.682 52.859 28.2131 53.7085 28.6381C54.0271 28.8505 54.3457 29.2755 54.6642 29.2755C55.5138 29.488 56.2571 29.9129 57.2128 29.8067C57.5314 29.7004 57.7438 29.8067 58.0624 29.8067C58.1685 29.8067 58.2747 29.9129 58.2747 30.0191C58.3809 30.3378 58.4871 30.6565 58.4871 30.9753C58.4871 31.5064 59.1242 31.5064 59.3366 31.8251C59.4428 31.9314 59.549 32.1438 59.6552 32.3563C59.8676 32.8875 60.1862 33.4187 60.5047 33.8436C61.0357 34.481 61.6728 34.9059 62.2038 35.5434C63.2657 36.6057 63.7966 37.9868 64.7524 39.1554C65.3895 40.0052 66.1329 40.8551 66.5576 41.705C67.0886 42.7673 67.4071 43.8297 67.8319 44.9983C68.1504 45.8482 68.2567 46.698 68.469 47.5479C68.5752 48.0791 68.8938 48.6103 69 49.0352C69 49.1415 69 49.2477 69 49.2477C68.5752 49.6726 68.8938 50.0976 68.7876 50.5225C68.6814 51.0537 68.5752 51.5849 68.469 52.116C68.3629 52.4347 68.3628 52.7534 68.3628 53.0722C68.469 53.922 67.9381 54.6657 67.6195 55.4093C67.301 55.9405 67.0886 56.4717 66.8762 57.0029C66.6638 57.534 66.1328 57.959 65.708 58.2777C64.8585 58.8088 63.9028 59.1276 63.0533 59.5525C62.9471 59.5525 62.8409 59.5525 62.7347 59.5525C61.8852 59.4463 60.8233 59.6587 60.0799 59.0213C60.0799 59.0213 59.9737 59.0213 59.8675 58.9151C59.8675 59.2338 59.8675 59.5525 59.8675 59.8712C59.8675 60.8273 59.9738 61.7834 60.0799 62.6333C60.0799 63.2707 60.1861 63.9081 60.0799 64.4393C59.9738 65.2892 60.1861 66.0328 60.0799 66.8827C60.0799 67.4139 59.8676 67.9451 59.7614 68.4762C59.6552 68.7949 59.6552 69.1137 59.549 69.3261C59.4428 69.4324 59.1242 69.6448 59.018 69.6448C58.8057 69.5386 58.4871 69.2199 58.4871 69.0074C58.4871 68.4762 58.5933 67.9451 58.5933 67.3077C58.5933 67.0952 58.5933 66.8827 58.4871 66.7765C58.4871 66.3515 58.3809 65.8204 58.3809 65.2892C57.1066 65.3954 55.8323 65.6079 54.558 65.7141C54.4519 65.7141 54.2395 65.7141 54.1333 65.6079C53.8147 65.2892 53.3899 64.9705 53.3899 64.3331C53.3899 63.9081 52.9652 63.4832 52.7528 62.952C52.5404 63.2707 52.4342 63.4832 52.4342 63.6957C52.1157 64.3331 51.5847 64.4393 51.1599 63.9081C50.9475 63.5894 50.7352 63.377 50.5228 63.0583C49.9918 63.4832 50.3104 64.0144 50.3104 64.4393C50.2042 64.4393 50.2042 64.4393 50.098 64.5455C49.9918 64.2268 49.7794 63.9081 49.6733 63.5894C49.5671 63.2707 49.5671 62.8458 49.3547 62.6333C49.1423 62.4208 48.7175 62.4208 48.399 62.4208C48.1866 62.4208 47.868 62.4208 47.7618 62.4208C47.4433 63.0583 47.2309 63.5894 46.9123 64.0144C46.6999 64.5455 46.2752 64.5455 45.9566 64.1206C45.7442 63.9081 45.638 63.5894 45.3194 63.1645C45.107 63.377 44.8947 63.5894 44.8947 63.8019C44.7885 64.3331 44.4699 64.2268 44.1513 64.1206C43.7266 63.9081 43.3018 63.5894 43.1956 63.0583C43.1956 62.952 42.9832 62.7396 42.8771 62.8458C42.6647 62.8458 42.4523 63.0583 42.4523 63.1645C42.3461 63.6957 42.3461 64.2268 42.3461 64.758C42.4523 65.5017 41.8151 66.3515 41.0718 66.3515C40.0099 66.2453 39.0542 66.6702 38.0985 66.9889C37.8861 67.0952 37.6737 66.9889 37.4613 66.8827C37.1427 66.7765 36.9304 66.564 36.6118 66.4578C36.718 66.2453 36.9304 66.1391 37.0366 65.9266C37.3551 65.3954 37.4613 64.8642 37.4613 64.3331C37.4613 63.9081 37.4613 63.5894 37.4613 63.1645C37.4613 61.4647 37.3551 59.765 36.8242 58.1714C36.8242 58.0652 36.8242 57.959 36.8242 57.8527C36.718 56.3654 36.718 54.8782 36.6118 53.4971C36.5056 51.7973 36.3994 49.9913 36.2932 48.2916C36.2932 47.3355 36.2932 46.3793 36.2932 45.4232C35.3375 45.4232 35.1251 45.8482 35.1251 46.698C35.1251 47.6542 35.0189 48.6103 34.5941 49.4602C34.2756 50.0976 33.8508 50.735 33.3199 51.3724C33.2137 51.5849 32.8951 51.6911 32.5765 51.7973C32.3641 51.9036 32.258 52.0098 32.0456 52.2223C30.9837 53.4971 29.9218 54.6657 28.4351 55.4093C27.7979 55.728 27.3732 56.4717 26.9484 56.8966C26.736 57.1091 26.4175 57.3216 26.2051 57.534C25.7803 57.8527 25.4617 58.2777 25.037 58.5964C23.7627 59.4463 22.3822 60.4024 21.0017 61.2523C20.3646 61.6772 19.6213 61.7834 19.0903 62.2084C18.4532 62.7395 17.816 62.7396 17.0727 62.8458C16.3293 62.952 15.586 63.4832 14.8427 63.8019C14.0993 64.1206 13.356 64.1206 12.6127 64.0144C12.4003 64.0144 12.0817 63.9081 11.8693 63.9081C11.2322 63.8019 10.4888 63.6957 9.8517 63.5894C9.74551 63.5894 9.53313 63.5894 9.42694 63.6957C9.32075 63.8019 9.42694 64.0144 9.42694 64.1206C9.42694 64.4393 9.42694 64.758 9.42694 65.0767L9.32074 65.183C9.42693 66.3515 9.10837 67.3077 8.89599 68.37C8.89599 68.5825 8.68359 68.6887 8.57739 68.9012C8.36501 68.795 8.15263 68.6887 8.04644 68.5825C7.83406 68.0513 7.72787 67.4139 7.62168 66.8827C7.62168 66.7765 7.62169 66.7765 7.72788 66.6702C8.57741 65.8204 7.94028 64.758 7.94028 63.8019C7.94028 62.6333 6.87834 62.3146 6.45358 61.4647C5.71024 60.2961 4.64833 59.2338 4.32976 57.7465C4.11738 57.0029 3.79882 56.3654 3.48025 55.6218C2.94929 54.347 2.9493 52.9659 3.05549 51.6911C3.26787 50.0976 3.48026 48.3978 3.69264 46.8043C3.90502 45.6357 4.54216 44.6796 5.17931 43.6172C5.81645 42.5549 6.45359 41.4925 7.19693 40.4302C7.94026 39.2616 8.78978 38.1992 9.6393 37.1369C10.2764 36.287 10.9136 35.4371 11.657 34.7997C12.6127 33.9498 13.6746 33.0999 14.6303 32.3563C15.3736 31.8251 16.117 31.294 16.7541 30.7628C17.0727 30.5503 17.2851 30.1254 17.4974 29.8067C17.6036 29.7004 17.6036 29.5942 17.7098 29.5942C18.347 29.1693 18.9841 28.8505 19.5151 28.4256C20.4708 28.6381 21.0017 28.1069 21.6389 27.682ZM55.8323 62.5271C55.089 62.6333 54.9828 62.7396 55.3014 63.377C55.7261 63.2707 55.8323 62.952 55.8323 62.5271C55.8323 62.2084 55.9385 61.8897 55.9385 61.571C55.7262 61.571 55.62 61.571 55.4076 61.571C55.62 61.9959 55.7261 62.3146 55.8323 62.5271ZM53.8147 30.3378C52.9652 29.8067 52.2219 29.3817 51.4785 29.063C50.098 28.3194 48.6114 27.682 47.5494 26.5134C47.4433 26.4071 47.4432 26.4071 47.337 26.4071C46.6999 26.1947 46.0628 25.9822 45.4256 25.7697C45.1071 25.6635 45.0009 25.6635 44.7885 25.9822C44.4699 26.5134 44.0452 27.1508 43.5142 27.5757C42.6647 28.3194 41.709 28.8505 40.8594 29.488C39.9037 30.1254 38.8418 30.3378 37.7799 30.5503C37.0365 30.6565 36.187 30.6565 35.3375 30.7628C35.2313 30.7628 35.1251 30.7628 35.0189 30.869C34.3818 31.4002 33.6384 31.7189 32.7889 31.6127C31.9394 31.6127 31.196 31.6127 30.3465 31.6127C30.1341 31.6127 30.0279 31.6127 29.8156 31.5064C28.966 31.294 28.1165 30.869 27.267 30.6565C25.8865 30.2316 24.6122 29.5942 23.2317 28.9568C22.7008 28.6381 22.276 28.4256 21.8512 28.9568C21.7451 29.063 21.5327 29.1692 21.4265 29.1692C20.4708 29.3817 19.7275 30.0191 19.0903 30.7628C18.1346 31.8251 16.7541 32.2501 16.0108 33.5249L15.9046 33.6311C15.2674 34.1623 14.5241 34.7997 13.8869 35.3309C13.6746 35.4371 13.5684 35.6496 13.356 35.7558C12.7188 36.3932 11.9755 37.0306 11.3384 37.6681C10.9136 38.1992 10.4889 38.8366 10.0641 39.3678C9.85171 39.5803 9.63932 39.7928 9.42694 40.0052C8.89599 40.5364 8.4712 41.1738 8.04644 41.705C7.4093 42.6611 6.77217 43.511 6.24122 44.4671C5.81645 45.317 5.49788 46.2731 5.17931 47.2292C4.86073 48.0791 4.54216 48.929 4.54216 49.8851C4.54216 49.9913 4.43596 50.2038 4.43596 50.31C4.32977 50.9474 4.1174 51.5849 4.1174 52.2223C4.1174 52.9659 4.43596 53.7096 4.43596 54.347C4.54215 55.728 5.1793 57.0029 5.60406 58.1714C6.13502 59.4463 6.98454 60.5086 7.72788 61.571C7.83407 61.7834 8.15265 61.8897 8.36503 61.9959C9.53313 62.4208 10.7012 62.6333 11.8693 62.6333C13.356 62.7395 14.7365 62.5271 16.1169 61.9959C17.7098 61.3585 19.4089 60.7211 20.8955 59.8712C22.1698 59.1276 23.4441 58.2777 24.6122 57.4278C25.4617 56.8966 26.3113 56.2592 27.0546 55.6218C27.798 54.9844 28.5413 54.347 29.2846 53.7096C29.9217 53.1784 30.5589 52.6472 31.1961 52.116C31.5146 51.7973 31.4084 51.4786 31.0899 51.2662C30.1341 50.8412 29.2846 50.2038 28.6475 49.2477C27.798 47.8666 26.6298 46.698 26.736 44.8921C26.736 44.7858 26.5237 44.5733 26.4175 44.5733C25.9927 44.6796 25.4617 44.7858 25.037 44.8921C24.1874 45.2108 23.3379 45.6357 22.4884 45.9544C21.3203 46.3793 20.046 46.8043 18.8779 47.123C18.4532 47.2292 18.0284 47.3355 17.6036 47.4417V47.3355C18.1346 47.0167 18.7717 46.698 19.3027 46.3793C20.577 45.7419 21.8513 44.9983 23.1255 44.3609C24.1875 43.8297 25.2494 43.511 26.3113 43.086C26.6298 42.9798 26.9484 42.7673 27.3732 42.6611C28.2227 42.4486 29.0722 42.3424 29.8156 42.1299C30.4527 42.0237 31.0899 41.8112 31.727 41.8112C32.7889 41.8112 33.8508 42.0237 34.9127 42.2362C35.2313 42.3424 35.5499 42.4486 35.9746 42.6611C35.9746 42.4486 35.9746 42.2362 35.9746 42.1299C35.8685 41.0676 35.8684 40.0052 35.7623 38.9429C35.7623 38.4117 35.6561 37.8805 35.5499 37.3494C35.4437 36.8182 35.3375 36.287 35.3375 35.7558C35.3375 34.5872 35.4437 33.3124 35.4437 32.1438C35.4437 31.5064 35.9747 30.869 36.6118 30.7628C37.7799 30.6565 38.948 30.5503 40.1161 30.5503C40.7532 30.5503 41.4966 30.5503 41.9213 31.294C41.709 31.7189 40.9656 31.7189 41.0718 32.3563C41.178 32.7812 41.0718 33.3124 41.0718 33.7374C41.7089 33.9498 42.2399 33.6311 42.6647 33.3124C43.1956 32.8875 43.8328 33.2062 44.0452 33.8436C44.2575 34.5872 44.3637 35.0122 45.5318 35.0122C46.169 35.0122 46.8061 35.1184 47.337 35.1184C47.4432 35.1184 47.6556 35.1184 47.7618 35.1184C48.6114 35.0122 49.4609 34.9059 50.3104 34.7997C50.629 34.7997 50.9475 34.7997 51.2661 34.7997C51.6909 33.9498 51.7971 32.7812 53.0714 32.675C52.9652 32.3563 52.859 32.1438 52.859 31.9314C52.7528 31.4002 53.0714 30.6565 52.1156 30.4441L52.2218 30.3378C52.7528 30.5503 53.1775 30.4441 53.8147 30.3378ZM43.1956 15.04C42.3461 14.8275 41.4966 15.1462 40.7532 15.6774C40.3285 15.8899 39.6913 15.7836 39.2666 15.7836C38.8418 15.7836 38.417 15.5712 37.9923 15.4649C37.7799 15.4649 37.6737 15.3587 37.4613 15.3587C36.6118 15.04 35.7623 14.7213 34.9127 14.4026C34.488 14.2963 34.0632 14.0839 33.6384 13.9776C32.7889 13.7652 31.9394 13.5527 31.3023 12.809C31.0899 12.5966 30.5589 12.4903 30.2403 12.4903C30.1342 12.4903 30.0279 13.1277 29.9218 13.4465C29.7094 14.0839 29.6032 14.7213 29.3908 15.3587C29.2846 15.5712 29.2846 15.8899 29.2846 16.1023C29.0722 16.5273 28.9661 17.0584 28.6475 17.3772C28.3289 17.9083 27.7979 18.3333 27.3732 18.8644C26.9484 19.2894 26.8422 19.9268 26.3113 20.2455C26.2051 20.3517 25.9927 20.3517 25.8865 20.458C25.4618 20.7767 25.037 21.2016 24.6122 21.5203C24.3998 21.6266 24.1875 21.7328 24.0813 21.839C23.8689 22.5827 23.2318 22.7951 22.807 23.2201C22.276 23.7513 21.6389 23.9637 21.0017 24.07C20.6832 24.07 20.6831 24.2824 20.7893 24.4949C21.2141 25.1323 21.6389 25.876 22.0636 26.5134C22.276 26.7258 22.4884 26.8321 22.7008 26.6196C22.9132 26.4071 23.1255 26.5134 23.1255 26.7258C23.2317 26.9383 23.2318 27.1508 23.3379 27.3633C23.4441 27.5757 23.4441 27.7882 23.6565 27.8944C24.1875 28.2131 24.6122 28.4256 25.1432 28.6381C26.0989 28.9568 27.0546 29.1693 28.0103 29.488C29.0722 29.9129 30.1342 30.0191 31.1961 29.9129C31.4084 29.9129 31.6208 29.9129 31.8332 29.9129C32.1518 29.9129 32.4703 29.8067 32.7889 29.7004C33.3199 29.5942 33.8508 29.3817 34.3818 29.488C34.9127 29.5942 35.4437 29.5942 35.9746 29.3817C36.187 29.3817 36.2932 29.2755 36.5056 29.1692C37.2489 28.9568 37.9923 28.8505 38.6294 28.5318C39.5851 28.1069 40.4347 27.5757 41.2842 26.9383C41.8151 26.5134 42.1337 25.9822 42.3461 25.2386C42.5585 24.7074 42.9832 24.2824 43.3018 23.7513C43.8328 23.0076 44.2575 22.3702 44.7885 21.7328C44.8947 21.5203 45.0009 21.3078 45.0009 21.2016C45.1071 20.6704 45.3194 20.1393 45.4256 19.5019C45.5318 19.0769 45.638 18.7582 45.5318 18.3333C45.4256 17.0584 45.1071 15.8899 45.0009 14.615C44.8947 14.1901 44.8947 13.6589 44.7885 13.234C44.6823 13.234 44.6823 13.234 44.5761 13.234C44.4699 13.5527 44.4699 13.8714 44.3637 14.1901L44.2575 14.2963C44.2575 14.1901 44.1513 14.0839 44.1513 13.9776C44.0451 14.1901 44.0452 14.2963 43.939 14.4026C43.7266 14.1901 43.6204 14.0839 43.408 13.7652C43.3018 14.7213 43.3018 14.8275 43.1956 15.04ZM58.9119 34.1623C58.8057 34.481 58.5933 34.7997 58.5933 35.0122C58.6995 36.1808 58.8057 37.4556 58.9119 38.6242C59.0181 39.5803 59.1242 40.4302 59.2304 41.3863C59.2304 41.705 59.3366 42.0237 59.3366 42.2362C59.3366 42.8736 59.2304 43.511 59.2304 44.2546C59.2304 44.6796 59.0181 45.4232 59.2304 45.5295C59.8676 46.0606 60.2924 46.5918 60.5047 47.3355C60.7171 48.0791 60.9295 48.929 60.9295 49.7789C60.9295 50.5225 60.8233 51.2662 60.7171 52.116C60.6109 53.0721 60.2924 53.922 59.6552 54.5594C59.2305 54.9844 58.6995 55.3031 58.8056 56.0467C58.8056 56.3654 58.8057 56.7904 58.6995 57.1091C58.5933 57.6403 59.018 57.7465 59.3366 57.8527C60.0799 58.1714 60.9295 58.5964 61.6728 58.7026C62.4161 58.8088 63.2657 58.8088 64.009 58.3839C64.7524 57.959 65.4957 57.6403 65.8143 56.7904C66.4514 55.6218 67.0886 54.347 67.6195 53.1784C68.0443 52.3285 67.8319 51.3724 67.6195 50.4163C67.4072 49.5664 67.0886 48.6103 66.8762 47.7604C66.5576 46.698 66.4514 45.6357 65.8143 44.6796C65.4957 44.0422 64.9647 43.511 64.7524 42.8736C64.2214 41.2801 63.4781 39.899 62.4162 38.7304C61.4604 37.6681 60.7171 36.287 59.6552 35.3309C59.6552 35.0122 59.2304 34.5872 58.9119 34.1623ZM37.6737 32.5688C37.8861 33.4187 37.3551 34.1623 37.6737 35.0122C37.7799 35.2247 37.6737 35.4371 37.6737 35.7558C37.4613 36.9244 37.2489 38.093 37.6737 39.1554C37.6737 39.2616 37.6737 39.4741 37.6737 39.6865C37.6737 40.0052 37.5675 40.3239 37.5675 40.6426C37.5675 41.705 37.5675 42.7673 37.5675 43.9359C37.5675 45.1045 37.6737 46.3793 37.5675 47.5479C37.4613 48.7165 38.0985 49.8851 37.5675 51.0537C37.5675 51.1599 37.5675 51.1599 37.5675 51.2662C37.6737 51.6911 37.6737 52.2223 37.7799 52.6472C37.8861 53.3909 37.8861 54.1345 37.9923 54.9844C37.9923 55.0906 37.9923 55.1968 37.9923 55.3031C37.9923 55.5156 37.8861 55.8343 37.8861 56.0467C37.8861 57.0029 38.0985 57.959 38.0985 59.0213C38.0985 59.765 38.2047 60.4024 38.2047 61.146C38.2047 61.9959 38.3109 62.8458 38.2047 63.6957C38.0985 64.5455 38.2047 65.3954 38.2047 66.3515C38.2047 66.3515 38.2047 66.3515 38.2047 66.4578C39.1604 66.7765 40.0099 66.3515 40.8594 66.2453C40.9656 66.2453 41.0718 66.0328 41.0718 65.9266C41.178 63.9081 41.0718 61.7834 40.8594 59.765C40.6471 57.959 40.647 56.2592 40.4346 54.4532C40.4346 54.1345 40.3285 53.7096 40.2223 53.3909C40.1161 52.7534 39.9037 52.2223 39.7975 51.5849C39.6913 50.8412 39.7975 49.9913 39.7975 49.2477C39.7975 48.504 39.9037 47.7604 39.9037 47.0168C39.7975 45.5295 39.6913 44.0422 39.5851 42.4486C39.5851 41.3863 39.5851 40.3239 39.5851 39.2616C39.5851 38.1992 39.5851 37.0306 39.7975 35.9683C40.0099 34.9059 39.7975 33.9498 39.6913 32.9937C39.6913 32.8875 39.3728 32.5688 39.1604 32.5688C38.6294 32.3563 38.2047 32.4625 37.6737 32.5688ZM46.6999 54.4532C46.9123 54.1345 47.2309 54.1345 47.5494 54.347C47.6556 54.4532 47.868 54.4532 47.9742 54.347C48.5052 54.2407 48.8237 54.4532 48.9299 54.9844C49.0361 55.5156 49.2485 55.728 49.8857 55.6218C50.3104 55.5156 50.7352 55.6218 51.1599 55.6218C51.9033 55.6218 52.5404 55.6218 52.7528 54.7719C52.7528 54.6657 52.859 54.5594 52.9652 54.5594C53.1776 54.2407 53.3899 53.922 53.0714 53.4971C52.9652 53.2846 52.9652 53.0722 53.0714 52.8597C53.0714 52.541 53.1775 52.116 53.2837 51.7973C53.2837 51.5849 53.2837 51.4786 53.3899 51.2662C53.4961 50.5225 53.4961 49.7789 53.6023 49.0352C53.1776 49.0352 52.859 49.0352 52.9652 49.4602C52.9652 49.8851 52.859 50.2038 52.4342 50.31C52.2218 50.31 51.9033 49.9913 51.6909 49.8851C51.5847 49.7789 51.5847 49.6726 51.4785 49.5664L51.3723 49.4602C51.1599 49.4602 51.0538 49.5664 50.9476 49.5664C50.9476 49.3539 50.8414 49.2477 50.8414 49.0352C49.7795 49.1415 48.7175 49.2477 47.6556 49.3539C47.4433 50.2038 46.8061 50.9474 46.2751 50.8412C45.4256 50.735 45.2132 49.8851 44.7885 49.4602C44.6823 49.6726 44.5761 49.7789 44.4699 49.8851C44.1513 50.6287 43.7266 50.8412 43.0894 50.4163C42.7708 50.2038 42.5585 49.7789 42.3461 49.4602C42.2399 49.1414 42.1337 48.929 41.8151 49.0352C41.4966 49.1415 41.3904 49.4602 41.6027 49.7789C41.7089 49.9913 41.7089 50.2038 41.7089 50.4163C41.7089 51.0537 41.7089 51.6911 41.6027 52.4347C41.6027 52.8597 41.4966 53.2846 41.6027 53.6033C41.7089 54.2407 42.0275 54.8782 42.2399 55.6218C42.2399 55.5156 42.3461 55.4093 42.3461 55.4093C42.2399 54.8782 42.6647 54.7719 42.9832 54.5594C43.408 54.347 43.5142 54.7719 43.7266 54.8782C43.8328 54.9844 44.0451 55.1968 44.1513 55.3031C44.3637 55.5156 44.5761 55.6218 44.7885 55.1969C45.2132 54.1345 45.8504 53.922 46.6999 54.4532ZM47.868 41.5988C47.2309 41.5988 46.6999 41.5988 46.0628 41.5988C45.7442 41.5988 45.4256 41.4925 45.1071 41.4925C44.0452 41.5988 42.9832 42.2362 41.8151 42.1299C41.709 42.1299 41.4966 42.3424 41.4966 42.5549C41.6027 43.8297 41.6028 44.9983 41.7089 46.2731C41.7089 46.698 41.9213 47.123 42.0275 47.7604C42.2399 47.4417 42.3461 47.2292 42.3461 47.123C42.7709 46.9105 43.0894 46.8043 43.408 46.5918C43.939 46.2731 44.1513 46.2731 44.3637 46.8043C44.4699 46.9105 44.5761 47.0168 44.6823 47.2292C45.107 47.0168 45.4256 46.698 45.8504 46.4856C46.5937 46.0606 47.0185 46.0606 47.337 46.698C47.4432 46.9105 47.4432 47.2292 47.4432 47.5479C47.4432 48.0791 47.7618 48.2916 48.1866 48.1853C48.399 48.1853 48.6114 48.1853 48.7175 48.1853C48.9299 48.1853 49.2485 48.2916 49.4609 48.2916C49.8856 48.2916 50.3104 48.1853 50.7352 48.1853C51.0537 48.0791 51.3723 47.9729 51.2661 47.5479C51.2661 47.4417 51.2661 47.3355 51.3723 47.2292C51.5847 46.8043 52.0095 46.698 52.5404 46.698C53.0714 46.698 53.2837 46.8043 53.2837 47.3355C53.2837 47.6542 53.2837 47.9729 53.2837 48.2916C53.9209 47.8666 53.7085 47.3355 53.6023 47.0168C53.4961 46.2731 53.2837 45.4232 53.2837 44.6796C53.2837 43.9359 53.3899 43.2985 53.3899 42.5549C53.3899 42.3424 53.2837 42.1299 53.1775 41.9175C53.0714 41.9175 53.0714 41.9175 52.9652 41.9175C52.9652 42.0237 52.9652 42.0237 52.859 42.1299C52.6466 42.6611 52.4342 43.1923 52.2218 43.7235C52.1156 44.0422 51.7971 44.1484 51.4785 43.8297C50.9476 43.4048 50.4166 42.8736 50.4166 42.1299C50.4166 42.0237 50.3104 41.9175 50.2042 41.8112C50.098 41.9175 50.098 42.0237 49.9918 42.1299C49.9918 42.2362 49.9918 42.3424 49.9918 42.5549C49.8856 42.8736 49.7794 43.2985 49.5671 43.511C49.1423 43.9359 48.2928 43.4048 48.0804 42.7673C48.0804 42.3424 47.9742 42.0237 47.868 41.5988ZM50.098 40.9613C50.4166 40.8551 50.4166 40.6426 50.3104 40.3239C50.2042 40.2177 50.3104 39.899 50.3104 39.7928C50.629 39.4741 50.9476 39.1554 51.3723 38.9429C51.7971 38.6242 52.1156 38.7304 52.328 39.1554C52.5404 39.5803 52.6466 40.0052 52.859 40.4302C52.9652 40.5364 53.0714 40.6426 53.2837 40.7489C53.3899 40.6426 53.4961 40.5364 53.4961 40.3239C53.4961 39.4741 53.3899 38.5179 53.3899 37.6681C53.3899 37.6681 53.3899 37.6681 53.2837 37.5618C53.1775 37.5618 53.1776 37.5618 53.0714 37.6681C52.5404 38.093 52.5404 38.093 52.2218 37.4556C51.9033 36.9244 51.6909 36.3932 51.4785 35.7558C50.629 35.5434 49.6733 35.4371 48.7175 35.8621C48.6114 35.9683 48.5052 35.8621 48.2928 35.8621C47.4433 35.8621 46.4875 35.8621 45.638 35.8621C45.3194 35.8621 44.8947 35.6496 44.7885 35.7558C44.5761 35.9683 44.5761 36.3932 44.4699 36.6057C44.2575 37.1369 43.9389 37.7743 43.1956 37.8805C42.4523 37.9868 42.0275 37.4556 41.8151 36.8182C41.709 36.6057 41.6027 36.3932 41.4966 36.287C41.3904 37.7743 41.3904 39.1554 41.3904 40.6426C41.3904 40.7489 41.6028 41.0676 41.7089 41.0676C42.1337 41.0676 42.6646 41.0676 43.0894 41.0676C43.8327 40.9614 44.6823 40.7489 45.4256 40.7489C46.2752 40.6426 47.0185 40.7489 47.868 40.7489C47.9742 39.899 48.2928 39.2616 49.0361 38.8366C49.3547 38.7304 49.4609 38.5179 49.5671 38.9429C49.7794 39.6865 49.8856 40.3239 50.098 40.9613ZM49.3547 56.5779C49.2485 57.2153 48.9299 57.7465 48.1866 57.959C47.5494 58.1714 47.2309 57.6403 47.0185 57.2153C46.4875 58.0652 45.9566 58.2777 44.8947 57.4278C44.2575 58.2777 43.408 57.959 42.4523 57.959C42.5585 59.2338 42.6647 60.6148 42.7709 61.9959C43.0894 61.6772 43.1956 61.571 43.408 61.4647C43.6204 61.3585 43.8328 61.3585 44.0452 61.2523C44.1513 61.2523 44.1513 61.146 44.2575 61.146C44.8947 60.6148 44.8947 60.6148 45.4256 61.0398C45.9566 61.0398 46.4875 60.9336 46.9123 60.9336C47.4432 60.9336 47.6556 61.2523 47.6556 61.7834C47.6556 61.8897 47.6556 62.2084 47.7618 62.2084C48.2928 62.3146 48.8237 62.4208 49.4609 62.4208C49.6732 62.4208 49.7794 61.9959 49.9918 61.7834C50.098 61.6772 50.2042 61.4647 50.3104 61.3585C50.9476 60.4024 51.9033 60.2961 52.5404 61.146C52.859 61.6772 52.9652 61.3585 53.1775 61.146C53.2837 61.0398 53.3899 60.7211 53.4961 60.7211C54.0271 60.7211 54.0271 60.2961 54.0271 59.9774C54.0271 59.4463 54.0271 58.8088 53.9209 58.2777C53.8147 57.7465 53.6023 57.1091 53.4961 56.5779C52.0095 56.3654 50.7352 56.4717 49.3547 56.5779ZM35.8685 43.7235C35.2313 43.6172 34.5941 43.511 34.0632 43.4048C33.3199 43.2985 32.5765 43.2985 31.8332 43.1923C31.6208 43.1923 31.3022 43.1923 31.0899 43.2985C30.3465 43.511 29.6032 43.7235 28.8598 44.0422C28.3289 44.2546 28.0103 44.6796 27.9041 45.1045C27.6918 46.0606 27.9041 47.0167 28.4351 47.8666C29.0722 49.0352 30.028 50.0976 31.3023 50.6287C32.258 51.0537 32.8951 50.8412 33.4261 49.8851C33.8508 49.0352 33.957 48.1853 34.0632 47.3355C34.0632 47.0167 33.957 46.9105 33.7446 46.9105C33.5323 46.9105 33.4261 47.123 33.2137 47.123C32.8951 47.2292 32.5765 47.2292 32.258 47.2292C32.1518 47.2292 32.1518 46.698 32.1518 46.4856C32.1518 46.2731 32.3641 46.1669 32.4703 46.0606C32.8951 45.8482 33.4261 45.6357 33.8508 45.4232C34.7004 44.9983 35.3375 44.4671 35.8685 43.7235ZM54.6642 45.6357C54.9828 45.4232 55.3014 45.2108 55.5138 44.9983C56.1509 44.4671 56.6819 43.9359 57.6376 44.3609C57.6376 44.1484 57.6376 43.9359 57.6376 43.7235C57.5314 41.8112 57.4252 40.0052 57.4252 38.093C57.4252 36.8182 57.4252 35.5434 57.4252 34.1623C57.4252 33.9498 57.4252 33.7374 57.319 33.6311C57.2128 33.3124 57.1066 32.9937 57.0005 32.675C56.8943 32.2501 57.0005 31.9314 57.0005 31.5064C57.0005 30.869 56.788 30.7628 56.1509 30.7628C55.5137 30.7628 54.8766 30.9753 54.2395 30.9753C53.6023 30.9753 53.3899 31.0815 53.3899 31.8251C53.3899 32.8875 53.4961 33.8436 53.6023 34.9059C53.6023 35.0122 53.8147 35.2247 53.9209 35.4371C54.0271 35.2247 54.1333 35.1184 54.1333 35.0122C54.0271 34.0561 54.6642 33.3124 55.6199 33.3124C55.7261 33.3124 56.0447 33.4187 56.0447 33.5249C56.1509 34.1623 56.2571 34.9059 56.3633 35.5434C56.3633 35.7558 56.2571 35.9683 56.1509 36.1808C56.0447 36.9244 55.8323 37.6681 55.7261 38.5179C54.9828 37.9868 54.558 37.2431 53.8147 36.8182C53.8147 37.4556 53.9209 37.9868 53.9209 38.5179C53.9209 38.8367 53.9209 39.0491 54.3456 38.8366C54.8766 38.6242 55.1952 38.6242 55.3014 39.2616C55.7261 40.5364 56.0447 41.9175 55.4076 43.4048C55.089 43.4048 54.8766 43.4048 54.6642 43.2985C54.2395 43.0861 54.1333 43.4048 54.1333 43.7235C54.0271 44.0422 54.0271 44.3609 53.9209 44.6796C53.9209 44.7858 53.9209 44.9983 53.9209 45.1045C54.0271 45.6357 54.1333 46.1669 54.2395 46.698C54.2395 47.0168 54.2395 47.2292 54.2395 47.5479C54.2395 47.6542 54.3457 47.7604 54.4518 47.8666C54.558 47.7604 54.6642 47.7604 54.6642 47.6542C54.7704 47.3355 54.8766 46.9105 54.9828 46.5918C55.3014 45.8482 55.3014 45.8482 54.6642 45.6357ZM54.9828 65.0767C55.9385 64.9705 56.6819 64.8642 57.5314 64.758C57.6376 64.758 57.85 64.5455 57.85 64.4393C57.85 63.377 57.85 62.3146 57.85 61.2523C57.85 59.765 57.7437 58.3839 57.7437 56.8966C57.7437 56.0467 58.0624 55.0906 57.0005 54.5594C56.0447 53.1784 55.089 51.7973 54.7704 50.0976C54.3456 50.31 54.0271 52.6472 54.3456 53.6033C54.9828 53.4971 55.3014 53.7096 55.5138 54.2407C55.6199 54.8781 55.7261 55.5156 55.7261 56.153C55.7261 56.5779 55.6199 57.1091 55.3014 57.3216C54.7704 57.7465 54.6642 58.2777 54.6642 58.9151C54.6642 59.5525 54.6642 60.2961 54.6642 61.146C54.9828 60.9335 55.089 60.8273 55.1952 60.8273C55.4076 60.7211 55.8324 60.4024 55.9385 60.5086C56.2571 60.7211 56.6818 61.0398 56.6818 61.4647C56.788 62.3146 56.788 63.2707 56.3633 64.1206C56.1509 64.5455 55.9385 64.6518 55.5138 64.5455C55.4076 64.5455 55.3013 64.5455 55.089 64.4393C54.9828 64.5455 54.9828 64.758 54.9828 65.0767ZM57.85 53.6033C58.1685 53.2846 58.5933 53.0722 58.6995 52.7534C59.0181 52.116 59.1242 51.4786 59.3366 50.735C59.4428 50.4163 59.549 50.0976 59.549 49.7789C59.4428 49.0352 59.3367 48.2916 59.1243 47.5479C58.9119 46.4856 58.2747 45.5295 57.4252 44.8921C57.0004 44.6796 56.1509 44.7858 56.1509 45.1045C56.0447 45.9544 55.9385 46.698 55.8323 47.5479C55.8323 48.0791 55.9385 48.7165 56.0447 49.2477C56.1509 49.6726 56.1509 50.2038 56.3633 50.6287C56.788 51.6911 57.319 52.6472 57.85 53.6033ZM48.2928 41.8112C48.399 42.0237 48.399 42.3424 48.5052 42.5549C48.5052 42.6611 48.7176 42.7673 48.8237 42.8736C48.9299 42.7673 49.1423 42.6611 49.1423 42.5549C49.2485 41.9175 49.3547 41.1738 49.3547 40.5364C49.3547 40.3239 49.2485 40.2177 49.2485 40.0052C49.0361 40.1115 48.9299 40.1115 48.7175 40.3239C48.399 40.5364 48.5052 40.8551 48.8237 41.0676C48.9299 41.1738 49.0361 41.2801 49.2485 41.4925C48.9299 41.5988 48.7176 41.705 48.2928 41.8112ZM42.6647 37.4556C43.408 36.9244 43.6204 36.4995 43.3018 35.7558C43.1956 35.5434 42.877 35.5434 42.6647 35.4371C42.5585 35.4371 42.3461 35.5434 42.3461 35.6496C42.3461 36.287 42.1337 36.9244 42.6647 37.4556ZM50.9476 61.7834C50.9476 61.8897 50.9476 61.8897 50.9476 61.9959C51.5847 62.4208 51.5847 62.4208 51.1599 62.952C50.8414 63.2707 51.2661 63.5894 51.3723 63.8019C51.3723 63.8019 51.6909 63.8019 51.7971 63.6957C52.328 63.2707 52.2218 62.1021 51.5847 61.7834C51.4785 61.6772 51.1599 61.7834 50.9476 61.7834ZM52.2218 37.3494C52.859 37.3494 53.2838 36.4995 53.0714 35.7558C52.859 35.8621 52.5404 35.9683 52.328 35.9683C51.9033 35.9683 51.9033 36.287 52.0095 36.4995C52.0095 36.7119 52.1156 36.9244 52.2218 37.3494ZM47.4432 56.5779H47.337C47.337 56.6841 47.4432 56.8966 47.4432 57.0029C47.5494 57.1091 47.6556 57.3216 47.7618 57.3216C47.868 57.3216 48.1866 57.2153 48.1866 57.0029C48.2928 56.6842 48.2928 56.2592 48.1866 55.9405C48.1866 55.8343 47.9742 55.728 47.7618 55.6218C47.6556 55.728 47.6556 55.8343 47.5494 55.9405C47.6556 56.2592 47.5494 56.3654 47.4432 56.5779ZM51.4785 42.9798C51.5847 42.9798 51.5847 42.9798 51.6909 42.9798C51.7971 42.6611 52.0094 42.4486 52.1156 42.1299C52.1156 42.0237 52.0095 41.8112 51.9033 41.8112C51.6909 41.8112 51.4785 41.8112 51.2661 41.8112C51.2661 42.0237 51.2661 42.2362 51.3723 42.4486C51.2661 42.5549 51.3723 42.7673 51.4785 42.9798ZM51.6909 39.899C51.4785 40.2177 51.3723 40.3239 51.2661 40.5364C51.1599 40.7489 51.1599 40.8551 51.1599 41.0676C51.3723 41.0676 51.6909 41.1738 51.9033 41.0676C52.0095 41.0676 52.2218 40.7489 52.1156 40.6426C52.0094 40.3239 51.7971 40.1115 51.6909 39.899ZM55.089 41.4925C54.9828 41.5988 54.8766 41.5988 54.7704 41.705C54.6642 41.8112 54.6642 41.9175 54.6642 42.0237L54.7704 42.1299C54.8766 42.0237 54.9828 42.0237 54.9828 41.9175C55.089 41.5988 55.1952 41.2801 55.1952 40.9613C55.1952 40.7489 54.9828 40.5364 54.8766 40.3239C54.6642 40.4302 54.558 40.5364 54.3456 40.7489C54.558 40.9613 54.7704 41.1738 55.089 41.4925ZM53.0714 35.2247C53.1776 34.7997 53.0714 34.481 52.6466 34.481C52.2218 34.3748 52.0095 34.7997 51.9033 35.3309C52.328 35.3309 52.6466 35.2247 53.0714 35.2247ZM47.0185 62.8458C46.6999 63.0583 46.3813 63.1645 46.2751 63.377C46.1689 63.4832 46.169 63.6957 46.169 63.9081C46.169 64.0144 46.3813 64.1206 46.4875 64.2268C46.5937 64.1206 46.6999 64.0144 46.6999 63.9081C46.8061 63.5894 46.9123 63.2707 47.0185 62.8458ZM43.3018 56.8966L43.408 57.0029C43.6204 56.8966 43.8328 56.8966 43.939 56.7904C44.1513 56.4717 43.8328 55.9405 43.1956 55.5156C42.9832 55.728 42.7708 55.9405 43.1956 56.153C43.5142 56.2592 43.8328 56.4717 43.3018 56.8966ZM46.169 61.7834L46.0628 61.8897C46.0628 62.1021 46.0628 62.4208 46.169 62.4208C46.3814 62.5271 46.6999 62.5271 47.0185 62.4208C47.0185 62.4208 47.1247 62.1021 47.0185 62.1021C46.8061 61.9959 46.4875 61.8897 46.169 61.7834ZM55.1952 36.9244C55.3014 36.9244 55.4076 36.9244 55.4076 36.9244C55.4076 36.6057 55.4076 36.287 55.5138 35.9683C55.4076 35.9683 55.1952 35.9683 55.089 36.0745C54.8766 36.3932 54.9828 36.6057 55.1952 36.9244ZM54.8766 35.2247C55.3014 35.2247 55.5138 35.2246 55.9385 35.1184C55.7262 34.7997 55.5137 34.5872 55.3014 34.2685C55.089 34.6935 54.9828 34.906 54.8766 35.2247ZM54.1333 62.7395C53.8147 62.7395 53.4961 62.8458 53.6023 63.2707C53.6023 63.377 53.8147 63.5894 53.8147 63.5894C54.1333 63.377 54.2395 63.1645 54.1333 62.7395ZM43.7266 48.3978C43.0894 48.2916 42.9832 48.3978 43.3018 49.2477C43.5142 49.0352 43.6204 48.7165 43.7266 48.3978ZM54.2395 56.2592C54.7704 55.1969 54.7704 55.0906 54.2395 54.9844C54.2395 55.4093 54.2395 55.8343 54.2395 56.2592ZM46.169 49.1415L46.0628 49.0352C45.9566 49.1415 45.638 49.1415 45.638 49.2477C45.638 49.4602 45.7442 49.6726 45.8504 49.8851H45.9566C46.0628 49.5664 46.169 49.3539 46.169 49.1415Z" fill="black"/>
<path d="M43.1951 15.0399C43.1951 14.8274 43.3013 14.6149 43.3013 14.2962C43.5137 14.6149 43.7261 14.7212 43.8323 14.9337C43.9384 14.8274 43.9385 14.6149 44.0446 14.5087C44.1508 14.6149 44.1508 14.7212 44.1508 14.8274L44.257 14.7212C44.3632 14.4025 44.3632 14.0838 44.4694 13.7651C44.5756 13.7651 44.5756 13.7651 44.6818 13.7651C44.788 14.19 44.8942 14.7212 44.8942 15.1461C45.1065 16.4209 45.3189 17.5895 45.4251 18.8644C45.4251 19.1831 45.3189 19.608 45.3189 20.0329C45.2127 20.5641 45.0004 21.0953 44.8942 21.7327C44.788 21.9452 44.788 22.1576 44.6818 22.2639C44.257 23.0075 43.7261 23.6449 43.1951 24.2823C42.8765 24.8135 42.4518 25.2385 42.2394 25.7696C42.027 26.5133 41.6022 27.0445 41.1775 27.4694C40.328 28.1068 39.4784 28.638 38.5227 29.0629C37.8856 29.3816 37.1422 29.4879 36.3989 29.7003C36.1865 29.7003 36.0803 29.8066 35.8679 29.9128C35.337 30.019 34.9122 30.1253 34.2751 30.019C33.7441 29.9128 33.2132 30.1253 32.6822 30.2315C32.3636 30.2315 32.0451 30.3378 31.7265 30.444C31.5141 30.444 31.3017 30.444 31.0893 30.444C30.0274 30.5502 28.9655 30.444 27.9036 30.019C26.9479 29.7003 25.9922 29.4879 25.0365 29.1692C24.5055 28.9567 23.9746 28.7442 23.5498 28.4255C23.4436 28.3193 23.3374 28.1068 23.2312 27.8943C23.125 27.6819 23.125 27.4694 23.0188 27.2569C22.9126 26.9382 22.8065 26.9382 22.5941 27.1507C22.2755 27.3632 22.0631 27.2569 21.9569 27.0445C21.5322 26.407 21.1074 25.6634 20.6827 25.026C20.5765 24.8135 20.5764 24.6011 20.895 24.6011C21.6384 24.4948 22.1693 24.1761 22.7003 23.7512C23.2312 23.3262 23.8684 23.1138 23.9745 22.3701C23.9745 22.2639 24.2931 22.1576 24.5055 22.0514C24.9303 21.7327 25.355 21.3078 25.7798 20.9891C25.886 20.8828 25.9922 20.7766 26.2046 20.7766C26.8417 20.4579 26.9479 19.8205 27.2665 19.3955C27.6912 18.8644 28.116 18.4394 28.5408 17.9082C28.7532 17.4833 28.9655 17.0584 29.1779 16.6334C29.2841 16.4209 29.2841 16.1022 29.2841 15.8898C29.3903 15.2524 29.6027 14.6149 29.815 13.9775C29.9212 13.6588 30.0274 13.0214 30.1336 13.0214C30.4522 13.0214 30.9832 13.1277 31.1955 13.3401C31.8327 14.0838 32.6822 14.19 33.5317 14.5087C33.9565 14.6149 34.3813 14.8274 34.806 14.9337C35.6556 15.2524 36.5051 15.5711 37.3546 15.8898C37.567 15.996 37.6732 15.996 37.8856 15.996C38.3103 16.1022 38.7351 16.3147 39.1599 16.3147C39.6908 16.3147 40.328 16.4209 40.6465 16.2085C41.6022 15.2524 42.3456 14.8274 43.1951 15.0399Z" fill="white"/>
<path d="M37.6744 32.5686C38.2054 32.4624 38.6302 32.3561 39.0549 32.3561C39.2673 32.3561 39.4797 32.5686 39.5859 32.7811C39.6921 33.7372 39.9045 34.6933 39.6921 35.7557C39.4797 36.818 39.4797 37.9866 39.4797 39.049C39.4797 40.1113 39.4797 41.1737 39.4797 42.236C39.5859 43.7233 39.6921 45.2106 39.7983 46.8041C39.7983 47.5478 39.6921 48.2914 39.6921 49.0351C39.6921 49.7787 39.5859 50.6286 39.6921 51.3722C39.6921 52.0096 39.9045 52.5408 40.1168 53.1782C40.223 53.4969 40.3292 53.9219 40.3292 54.2406C40.4354 56.0466 40.5416 57.7463 40.754 59.5523C40.9664 61.5708 41.0726 63.6955 40.9664 65.714C40.9664 65.8202 40.8602 66.0327 40.754 66.0327C39.9045 66.1389 38.9487 66.5639 38.0992 66.2451C38.0992 66.2451 38.0992 66.2451 38.0992 66.1389C38.0992 65.289 37.993 64.3329 38.0992 63.483C38.2054 62.6332 38.0992 61.7833 38.0992 60.9334C38.0992 60.1897 37.993 59.5523 37.993 58.8087C37.993 57.8526 37.8868 56.8965 37.7806 55.8341C37.7806 55.6216 37.8868 55.3029 37.8868 55.0905C37.8868 54.9842 37.993 54.878 37.8868 54.7717C37.7806 54.0281 37.7806 53.2845 37.6744 52.4346C37.6744 52.0096 37.5682 51.4785 37.4621 51.0535C37.4621 50.9473 37.4621 50.9473 37.4621 50.8411C37.993 49.6725 37.3559 48.5039 37.4621 47.3353C37.5682 46.1667 37.4621 44.8919 37.4621 43.7233C37.4621 42.661 37.4621 41.5986 37.4621 40.43C37.4621 40.1113 37.5683 39.7926 37.5683 39.4739C37.5683 39.3677 37.6744 39.1552 37.5683 38.9427C37.2497 37.7741 37.3559 36.6055 37.5683 35.5432C37.5683 35.3307 37.6744 35.012 37.5683 34.7996C37.3559 34.1621 37.993 33.4185 37.6744 32.5686Z" fill="#9A82F9"/>
<path d="M35.8678 43.7233C35.3369 44.4669 34.6997 45.1043 33.8502 45.423C33.4255 45.6355 32.8945 45.848 32.4697 46.0604C32.3635 46.1667 32.1512 46.3791 32.1512 46.4854C32.1512 46.6978 32.1512 47.229 32.2574 47.229C32.5759 47.229 32.8945 47.229 33.2131 47.1228C33.4255 47.1228 33.5316 46.9103 33.744 46.9103C34.0626 46.8041 34.1688 47.0165 34.0626 47.3352C33.9564 48.1851 33.744 49.1412 33.4255 49.8849C33.0007 50.841 32.3636 51.0535 31.3017 50.6285C30.0274 49.9911 29.0716 49.035 28.4345 47.8664C28.0097 47.0165 27.6912 46.0604 27.9035 45.1043C28.0097 44.6794 28.3283 44.1482 28.8592 44.042C29.6026 43.8295 30.3459 43.5108 31.0893 43.2983C31.3016 43.1921 31.6202 43.1921 31.8326 43.1921C32.5759 43.1921 33.3192 43.2983 34.0626 43.4045C34.5935 43.4045 35.2307 43.617 35.8678 43.7233Z" fill="white"/>
<path d="M54.6649 45.6357C55.1959 45.8482 55.1959 45.9544 54.9835 46.5918C54.8773 46.9106 54.7711 47.3355 54.6649 47.6542C54.6649 47.7604 54.5587 47.8667 54.4525 47.8667C54.3463 47.7604 54.2401 47.6542 54.2401 47.548C54.2401 47.2293 54.2401 46.9106 54.2401 46.6981C54.134 46.1669 54.0278 45.6357 53.9216 45.1046C53.9216 44.9983 53.8154 44.7858 53.9216 44.6796C53.9216 44.3609 54.0278 44.0422 54.134 43.7235C54.2402 43.4048 54.2402 43.0861 54.6649 43.2986C54.8773 43.4048 55.1959 43.4048 55.4083 43.4048C55.9392 41.9175 55.7268 40.6427 55.3021 39.2616C55.0897 38.7304 54.8773 38.6242 54.3463 38.8367C53.9216 39.0492 53.9216 38.8367 53.9216 38.518C53.9216 37.9868 53.8154 37.4556 53.8154 36.8182C54.5587 37.2432 54.9835 37.9868 55.7269 38.518C55.833 37.6681 56.0454 36.9245 56.1516 36.1808C56.1516 35.9683 56.364 35.7559 56.364 35.5434C56.2578 34.906 56.1516 34.1623 56.0454 33.5249C56.0454 33.4187 55.7268 33.3125 55.6206 33.3125C54.6649 33.3125 54.0278 34.0561 54.134 35.0122C54.134 35.1185 54.0278 35.2247 53.9216 35.4372C53.8154 35.2247 53.603 35.0122 53.603 34.906C53.4968 33.8436 53.3906 32.8875 53.3906 31.8252C53.3906 31.1878 53.603 31.0815 54.2401 30.9753C54.8773 30.9753 55.5144 30.7628 56.1516 30.7628C56.7887 30.7628 56.895 30.8691 57.0012 31.5065C57.0012 31.9314 57.0012 32.2501 57.0012 32.6751C57.0012 32.9938 57.2135 33.3125 57.3197 33.6312C57.4259 33.8436 57.4259 34.0561 57.4259 34.1623C57.4259 35.4372 57.4259 36.712 57.4259 38.093C57.4259 40.0053 57.5321 41.8113 57.6383 43.7235C57.6383 43.936 57.6383 44.0422 57.6383 44.3609C56.6826 43.8297 56.1516 44.4671 55.5145 44.9983C55.3021 45.2108 54.9835 45.4233 54.6649 45.6357Z" fill="#9A82F9"/>
<path d="M54.9821 65.0767C54.9821 64.758 54.9821 64.4393 54.9821 64.1206C55.0883 64.1206 55.3007 64.1206 55.4069 64.2268C55.8317 64.3331 56.0441 64.2268 56.2564 63.8019C56.7874 62.952 56.6812 61.9959 56.575 61.146C56.575 60.8273 56.1502 60.4024 55.8317 60.1899C55.7255 60.0837 55.3007 60.4024 55.0883 60.5086C54.9821 60.6148 54.876 60.7211 54.5574 60.8273C54.5574 59.9774 54.5574 59.34 54.5574 58.5964C54.5574 57.959 54.6636 57.4278 55.1945 57.0029C55.5131 56.7904 55.6193 56.2592 55.6193 55.8343C55.6193 55.1969 55.5131 54.5595 55.4069 53.922C55.3007 53.2846 54.8759 53.1784 54.2388 53.2846C53.9202 52.3285 54.2388 49.9913 54.6636 49.7789C54.9822 51.4786 55.9378 52.8597 56.8936 54.2407C57.9555 54.7719 57.6369 55.728 57.6369 56.5779C57.6369 58.0652 57.7431 59.4463 57.7431 60.9336C57.7431 61.9959 57.7431 63.0583 57.7431 64.1206C57.7431 64.2268 57.5307 64.4393 57.4245 64.4393C56.7874 64.8643 55.9379 64.9705 54.9821 65.0767Z" fill="#9A82F9"/>
<path d="M57.8497 53.6032C57.3187 52.5409 56.7878 51.691 56.363 50.7349C56.1506 50.3099 56.1506 49.885 56.0444 49.3538C55.9382 48.8226 55.832 48.1852 55.832 47.6541C55.832 46.8042 55.9382 45.9543 56.1506 45.2106C56.2568 44.8919 57.1063 44.7857 57.4249 44.9982C58.3806 45.6356 58.9116 46.4855 59.124 47.6541C59.3364 48.3977 59.4426 49.1413 59.5487 49.885C59.5487 50.2037 59.4425 50.5224 59.3363 50.8411C59.124 51.4785 59.0178 52.2222 58.6992 52.8596C58.593 53.1783 58.1683 53.2845 57.8497 53.6032Z" fill="white"/>
<path d="M48.293 41.8112C48.6115 41.7049 48.9301 41.5987 49.2486 41.3862C49.0363 41.1737 48.9301 41.0675 48.8239 40.9613C48.5053 40.7488 48.5053 40.5363 48.7177 40.2176C48.8239 40.1114 49.0363 40.0052 49.2486 39.8989C49.3548 40.1114 49.461 40.2176 49.3548 40.4301C49.3548 41.0675 49.2486 41.8112 49.1424 42.4486C49.1424 42.5548 48.9301 42.661 48.8239 42.7673C48.7177 42.661 48.6115 42.5548 48.5053 42.4486C48.3991 42.3423 48.3992 42.1299 48.293 41.8112Z" fill="#9A82F9"/>
<path d="M42.6652 37.4555C42.1343 36.9243 42.3466 36.2869 42.3466 35.6495C42.3466 35.5432 42.559 35.437 42.6652 35.437C42.8776 35.437 43.1961 35.5432 43.3023 35.7557C43.6209 36.4994 43.4085 37.0305 42.6652 37.4555Z" fill="#9A82F9"/>
<path d="M50.9473 61.7833C51.1597 61.7833 51.4782 61.6771 51.5844 61.7833C52.1154 62.102 52.2216 63.2706 51.7968 63.6955C51.6906 63.8018 51.372 63.908 51.372 63.8018C51.2658 63.5893 50.8411 63.2706 51.1596 62.9519C51.5844 62.4207 51.5844 62.4207 50.9473 61.9958C50.9473 61.9958 50.9473 61.8895 50.9473 61.7833Z" fill="#9A82F9"/>
<path d="M52.2213 37.3492C52.1151 37.0305 52.0089 36.7118 51.9027 36.4993C51.7966 36.1806 51.7965 35.9681 52.2213 35.9681C52.4337 35.9681 52.7523 35.8619 52.9646 35.7557C53.2832 36.3931 52.7523 37.243 52.2213 37.3492Z" fill="#9A82F9"/>
<path d="M47.4434 56.5778C47.5496 56.3654 47.5496 56.1529 47.6558 55.9404C47.6558 55.8342 47.7619 55.7279 47.8681 55.6217C47.9743 55.7279 48.2929 55.8342 48.2929 55.9404C48.2929 56.2591 48.2929 56.6841 48.2929 57.0028C48.2929 57.109 47.9743 57.3215 47.8681 57.3215C47.7619 57.3215 47.6557 57.109 47.5496 57.0028C47.4434 56.8965 47.4434 56.7903 47.4434 56.5778C47.4434 56.5778 47.4434 56.5778 47.4434 56.5778Z" fill="#9A82F9"/>
<path d="M51.4795 42.9798C51.3733 42.7674 51.2671 42.6611 51.1609 42.4487C51.0547 42.2362 51.0547 42.0237 51.0547 41.8113C51.2671 41.8113 51.4794 41.705 51.6918 41.8113C51.798 41.8113 52.0104 42.0237 51.9042 42.13C51.798 42.4487 51.6918 42.6611 51.4795 42.9798C51.5857 42.9798 51.5857 42.9798 51.4795 42.9798Z" fill="#9A82F9"/>
<path d="M51.6911 39.8989C51.9035 40.2176 52.0097 40.4301 52.1158 40.6426C52.1158 40.7488 52.0097 41.0675 51.9035 41.0675C51.6911 41.1738 51.3725 41.0675 51.1602 41.0675C51.1602 40.855 51.2664 40.6426 51.2664 40.5363C51.2664 40.3239 51.4787 40.1114 51.6911 39.8989Z" fill="#9A82F9"/>
<path d="M55.089 41.4925C54.7704 41.1738 54.6643 40.9613 54.3457 40.6426C54.5581 40.5364 54.6643 40.3239 54.8766 40.2177C54.9828 40.4301 55.1952 40.6426 55.1952 40.8551C55.1952 41.1738 55.089 41.4925 54.9828 41.8112C54.9828 41.9174 54.8766 42.0237 54.7704 42.0237L54.6643 41.9174C54.6643 41.8112 54.7704 41.705 54.7704 41.5987C54.7704 41.5987 54.9828 41.5987 55.089 41.4925Z" fill="#9A82F9"/>
<path d="M53.0705 35.2246C52.6457 35.2246 52.3271 35.3309 51.9023 35.3309C51.9023 34.7997 52.2209 34.3748 52.6457 34.481C53.0705 34.481 53.1767 34.7997 53.0705 35.2246Z" fill="#9A82F9"/>
<path d="M47.0187 62.8458C46.9125 63.2708 46.9125 63.5895 46.8063 63.8019C46.8063 63.9082 46.594 64.0144 46.594 64.1206C46.4878 64.0144 46.2754 63.9082 46.2754 63.8019C46.2754 63.5895 46.2754 63.377 46.3816 63.2708C46.3816 63.1645 46.594 63.0583 47.0187 62.8458Z" fill="#9A82F9"/>
<path d="M43.3024 56.8966C43.8333 56.4717 43.621 56.3654 43.1962 56.153C42.7714 55.9405 42.8776 55.728 43.1962 55.5156C43.8333 55.9405 44.1519 56.4717 43.9395 56.7904C43.8333 56.8966 43.621 56.8966 43.4086 57.0029C43.4086 56.8966 43.3024 56.8966 43.3024 56.8966Z" fill="#9A82F9"/>
<path d="M46.1687 61.7834C46.4873 61.8896 46.6996 61.9958 47.0182 62.2083V62.527C46.6996 62.527 46.4873 62.527 46.1687 62.527C46.0625 62.527 46.0625 62.2083 46.0625 61.9959C46.0625 61.8896 46.1687 61.8896 46.1687 61.7834Z" fill="#9A82F9"/>
<path d="M55.1952 36.9244C54.8772 36.7119 54.8771 36.3932 55.0891 36.0745C55.1951 35.9683 55.4071 35.9683 55.5131 35.9683C55.5131 36.287 55.5132 36.6057 55.4072 36.9244C55.4072 36.9244 55.3012 36.9244 55.1952 36.9244Z" fill="#9A82F9"/>
<path d="M54.877 35.2245C54.9831 34.9058 55.0893 34.5871 55.3017 34.2684C55.5141 34.5871 55.7266 34.7996 55.9389 35.1183C55.5142 35.2245 55.3017 35.2245 54.877 35.2245Z" fill="#9A82F9"/>
<path d="M55.8311 62.5269C55.8311 62.9518 55.7249 63.2705 55.3002 63.3767C54.9816 62.8456 55.0878 62.6331 55.8311 62.5269Z" fill="#9A82F9"/>
<path d="M54.1332 62.7394C54.2392 63.1643 54.1332 63.3768 53.8152 63.483C53.8152 63.483 53.6032 63.2705 53.6032 63.1643C53.4972 62.8456 53.7092 62.7394 54.1332 62.7394Z" fill="#9A82F9"/>
<path d="M43.7247 48.3978C43.6187 48.7165 43.4066 48.929 43.3006 49.2477C42.9826 48.504 43.0886 48.2915 43.7247 48.3978Z" fill="#9A82F9"/>
<path d="M54.2402 56.2591C54.2402 55.728 54.2402 55.4093 54.2402 54.9843C54.6643 55.1968 54.6643 55.1968 54.2402 56.2591Z" fill="#9A82F9"/>
<path d="M55.8317 62.5269C55.7257 62.2082 55.6197 61.9957 55.5137 61.5708C55.6197 61.5708 55.8317 61.5708 56.0438 61.5708C55.9377 61.9957 55.8317 62.3144 55.8317 62.5269Z" fill="#9A82F9"/>
<path d="M46.1687 49.1415C46.0627 49.354 46.0627 49.5664 45.9567 49.7789H45.8507C45.7447 49.5664 45.6387 49.354 45.6387 49.1415C45.6387 49.0353 45.9567 49.0353 46.0627 48.929C46.1687 49.0353 46.1687 49.0353 46.1687 49.1415Z" fill="#9A82F9"/>
</svg>
